<?xml version="1.0" encoding="UTF-8"?>
<!DOCTYPE svg PUBLIC "-//W3C//DTD SVG 1.1//EN" "http://www.w3.org/Graphics/SVG/1.1/DTD/svg11.dtd">
<svg version="1.2" width="280mm" height="157.5mm" viewBox="0 0 28000 15750" preserveAspectRatio="xMidYMid" fill-rule="evenodd" stroke-width="28.222" stroke-linejoin="round" xmlns="http://www.w3.org/2000/svg" xmlns:ooo="http://xml.openoffice.org/svg/export" xmlns:xlink="http://www.w3.org/1999/xlink" xmlns:presentation="http://sun.com/xmlns/staroffice/presentation" xmlns:smil="http://www.w3.org/2001/SMIL20/" xmlns:anim="urn:oasis:names:tc:opendocument:xmlns:animation:1.0" xml:space="preserve">
 <defs class="ClipPathGroup">
  <clipPath id="presentation_clip_path" clipPathUnits="userSpaceOnUse">
   <rect x="0" y="0" width="28000" height="15750"/>
  </clipPath>
  <clipPath id="presentation_clip_path_shrink" clipPathUnits="userSpaceOnUse">
   <rect x="28" y="15" width="27944" height="15719"/>
  </clipPath>
 </defs>
 <defs class="TextShapeIndex">
  <g ooo:slide="id1" ooo:id-list="id3 id4 id5 id6 id7 id8 id9 id10 id11 id12 id13 id14 id15 id16 id17 id18 id19 id20 id21 id22 id23 id24 id25 id26 id27 id28 id29 id30 id31 id32 id33 id34 id35 id36 id37 id38 id39 id40 id41 id42 id43 id44 id45 id46 id47 id48 id49 id50 id51 id52 id53 id54 id55 id56 id57 id58 id59 id60 id61 id62 id63 id64 id65 id66 id67 id68 id69 id70 id71 id72 id73 id74 id75 id76 id77 id78 id79 id80 id81 id82 id83"/>
 </defs>
 <defs class="EmbeddedBulletChars">
  <g id="bullet-char-template-57356" transform="scale(0.00048828125,-0.00048828125)">
   <path d="M 580,1141 L 1163,571 580,0 -4,571 580,1141 Z"/>
  </g>
  <g id="bullet-char-template-57354" transform="scale(0.00048828125,-0.00048828125)">
   <path d="M 8,1128 L 1137,1128 1137,0 8,0 8,1128 Z"/>
  </g>
  <g id="bullet-char-template-10146" transform="scale(0.00048828125,-0.00048828125)">
   <path d="M 174,0 L 602,739 174,1481 1456,739 174,0 Z M 1358,739 L 309,1346 659,739 1358,739 Z"/>
  </g>
  <g id="bullet-char-template-10132" transform="scale(0.00048828125,-0.00048828125)">
   <path d="M 2015,739 L 1276,0 717,0 1260,543 174,543 174,936 1260,936 717,1481 1274,1481 2015,739 Z"/>
  </g>
  <g id="bullet-char-template-10007" transform="scale(0.00048828125,-0.00048828125)">
   <path d="M 0,-2 C -7,14 -16,27 -25,37 L 356,567 C 262,823 215,952 215,954 215,979 228,992 255,992 264,992 276,990 289,987 310,991 331,999 354,1012 L 381,999 492,748 772,1049 836,1024 860,1049 C 881,1039 901,1025 922,1006 886,937 835,863 770,784 769,783 710,716 594,584 L 774,223 C 774,196 753,168 711,139 L 727,119 C 717,90 699,76 672,76 641,76 570,178 457,381 L 164,-76 C 142,-110 111,-127 72,-127 30,-127 9,-110 8,-76 1,-67 -2,-52 -2,-32 -2,-23 -1,-13 0,-2 Z"/>
  </g>
  <g id="bullet-char-template-10004" transform="scale(0.00048828125,-0.00048828125)">
   <path d="M 285,-33 C 182,-33 111,30 74,156 52,228 41,333 41,471 41,549 55,616 82,672 116,743 169,778 240,778 293,778 328,747 346,684 L 369,508 C 377,444 397,411 428,410 L 1163,1116 C 1174,1127 1196,1133 1229,1133 1271,1133 1292,1118 1292,1087 L 1292,965 C 1292,929 1282,901 1262,881 L 442,47 C 390,-6 338,-33 285,-33 Z"/>
  </g>
  <g id="bullet-char-template-9679" transform="scale(0.00048828125,-0.00048828125)">
   <path d="M 813,0 C 632,0 489,54 383,161 276,268 223,411 223,592 223,773 276,916 383,1023 489,1130 632,1184 813,1184 992,1184 1136,1130 1245,1023 1353,916 1407,772 1407,592 1407,412 1353,268 1245,161 1136,54 992,0 813,0 Z"/>
  </g>
  <g id="bullet-char-template-8226" transform="scale(0.00048828125,-0.00048828125)">
   <path d="M 346,457 C 273,457 209,483 155,535 101,586 74,649 74,723 74,796 101,859 155,911 209,963 273,989 346,989 419,989 480,963 531,910 582,859 608,796 608,723 608,648 583,586 532,535 482,483 420,457 346,457 Z"/>
  </g>
  <g id="bullet-char-template-8211" transform="scale(0.00048828125,-0.00048828125)">
   <path d="M -4,459 L 1135,459 1135,606 -4,606 -4,459 Z"/>
  </g>
  <g id="bullet-char-template-61548" transform="scale(0.00048828125,-0.00048828125)">
   <path d="M 173,740 C 173,903 231,1043 346,1159 462,1274 601,1332 765,1332 928,1332 1067,1274 1183,1159 1299,1043 1357,903 1357,740 1357,577 1299,437 1183,322 1067,206 928,148 765,148 601,148 462,206 346,322 231,437 173,577 173,740 Z"/>
  </g>
 </defs>
 <defs class="TextEmbeddedBitmaps"/>
 <g>
  <g id="id2" class="Master_Slide">
   <g id="bg-id2" class="Background"/>
   <g id="bo-id2" class="BackgroundObjects"/>
  </g>
 </g>
 <g class="SlideGroup">
  <g>
   <g id="container-id1">
    <g id="id1" class="Slide" clip-path="url(#presentation_clip_path)">
     <g class="Page">
      <g class="Group">
       <g class="com.sun.star.drawing.CustomShape">
        <g id="id3">
         <rect class="BoundingBox" stroke="none" fill="none" x="10717" y="7186" width="1441" height="1417"/>
         <path fill="rgb(230,82,44)" stroke="none" d="M 11437,7187 C 11569,7187 11682,7217 11797,7282 11911,7347 11994,7428 12060,7541 12126,7653 12157,7764 12157,7894 12157,8024 12126,8135 12060,8248 11994,8360 11911,8441 11797,8506 11682,8571 11569,8601 11437,8601 11305,8601 11192,8571 11077,8506 10963,8441 10880,8360 10814,8248 10748,8135 10718,8024 10718,7894 10718,7764 10748,7653 10814,7541 10880,7428 10963,7347 11077,7282 11192,7217 11305,7187 11437,7187 L 11437,7187 Z"/>
         <path fill="none" stroke="rgb(52,101,164)" d="M 11405,7188 C 11416,7187 11426,7187 11437,7187 11455,7187 11473,7188 11490,7189"/>
         <path fill="none" stroke="rgb(52,101,164)" d="M 11524,7192 C 11542,7194 11559,7196 11577,7199"/>
         <path fill="none" stroke="rgb(52,101,164)" d="M 11610,7207 C 11627,7211 11644,7216 11661,7221"/>
         <path fill="none" stroke="rgb(52,101,164)" d="M 11693,7233 C 11710,7239 11726,7246 11742,7253"/>
         <path fill="none" stroke="rgb(52,101,164)" d="M 11773,7269 C 11781,7273 11789,7277 11797,7282 11804,7286 11812,7290 11819,7295"/>
         <path fill="none" stroke="rgb(52,101,164)" d="M 11848,7313 C 11863,7323 11877,7334 11891,7344"/>
         <path fill="none" stroke="rgb(52,101,164)" d="M 11917,7366 C 11931,7378 11944,7390 11956,7403"/>
         <path fill="none" stroke="rgb(52,101,164)" d="M 11979,7428 C 11991,7441 12002,7455 12013,7469"/>
         <path fill="none" stroke="rgb(52,101,164)" d="M 12032,7497 C 12042,7511 12051,7525 12060,7541 12060,7541 12061,7541 12061,7542"/>
         <path fill="none" stroke="rgb(52,101,164)" d="M 12078,7572 C 12086,7588 12094,7603 12101,7619"/>
         <path fill="none" stroke="rgb(52,101,164)" d="M 12114,7651 C 12120,7668 12126,7684 12131,7701"/>
         <path fill="none" stroke="rgb(52,101,164)" d="M 12139,7734 C 12143,7752 12146,7769 12149,7787"/>
         <path fill="none" stroke="rgb(52,101,164)" d="M 12153,7821 C 12155,7838 12156,7856 12156,7874"/>
         <path fill="none" stroke="rgb(52,101,164)" d="M 12156,7908 C 12156,7926 12155,7944 12154,7961"/>
         <path fill="none" stroke="rgb(52,101,164)" d="M 12150,7995 C 12147,8013 12144,8030 12141,8047"/>
         <path fill="none" stroke="rgb(52,101,164)" d="M 12132,8080 C 12128,8097 12122,8114 12116,8131"/>
         <path fill="none" stroke="rgb(52,101,164)" d="M 12103,8163 C 12096,8179 12089,8195 12081,8211"/>
         <path fill="none" stroke="rgb(52,101,164)" d="M 12064,8241 C 12063,8243 12061,8245 12060,8248 12052,8261 12044,8273 12036,8286"/>
         <path fill="none" stroke="rgb(52,101,164)" d="M 12017,8314 C 12006,8328 11995,8342 11983,8355"/>
         <path fill="none" stroke="rgb(52,101,164)" d="M 11960,8381 C 11948,8393 11935,8406 11922,8418"/>
         <path fill="none" stroke="rgb(52,101,164)" d="M 11896,8440 C 11882,8450 11868,8461 11853,8471"/>
         <path fill="none" stroke="rgb(52,101,164)" d="M 11825,8490 C 11816,8495 11806,8501 11797,8506 11791,8510 11785,8513 11779,8516"/>
         <path fill="none" stroke="rgb(52,101,164)" d="M 11748,8532 C 11732,8540 11716,8547 11699,8553"/>
         <path fill="none" stroke="rgb(52,101,164)" d="M 11667,8565 C 11651,8571 11634,8576 11616,8580"/>
         <path fill="none" stroke="rgb(52,101,164)" d="M 11583,8587 C 11566,8591 11548,8594 11531,8596"/>
         <path fill="none" stroke="rgb(52,101,164)" d="M 11497,8599 C 11479,8600 11462,8601 11444,8601"/>
         <path fill="none" stroke="rgb(52,101,164)" d="M 11409,8601 C 11391,8600 11374,8599 11356,8597"/>
         <path fill="none" stroke="rgb(52,101,164)" d="M 11322,8593 C 11305,8590 11287,8587 11270,8583"/>
         <path fill="none" stroke="rgb(52,101,164)" d="M 11237,8574 C 11220,8570 11203,8564 11187,8558"/>
         <path fill="none" stroke="rgb(52,101,164)" d="M 11155,8545 C 11139,8538 11123,8531 11107,8522"/>
         <path fill="none" stroke="rgb(52,101,164)" d="M 11077,8506 C 11061,8497 11046,8488 11031,8478"/>
         <path fill="none" stroke="rgb(52,101,164)" d="M 11003,8459 C 10989,8448 10975,8437 10962,8426"/>
         <path fill="none" stroke="rgb(52,101,164)" d="M 10936,8403 C 10923,8391 10911,8378 10899,8365"/>
         <path fill="none" stroke="rgb(52,101,164)" d="M 10877,8339 C 10866,8326 10855,8311 10845,8297"/>
         <path fill="none" stroke="rgb(52,101,164)" d="M 10826,8268 C 10822,8261 10818,8254 10814,8248 10809,8239 10804,8231 10800,8222"/>
         <path fill="none" stroke="rgb(52,101,164)" d="M 10784,8192 C 10776,8175 10769,8159 10763,8143"/>
         <path fill="none" stroke="rgb(52,101,164)" d="M 10751,8111 C 10745,8094 10741,8077 10736,8060"/>
         <path fill="none" stroke="rgb(52,101,164)" d="M 10729,8026 C 10726,8009 10723,7992 10722,7974"/>
         <path fill="none" stroke="rgb(52,101,164)" d="M 10719,7940 C 10718,7925 10718,7910 10718,7894 10718,7892 10718,7889 10718,7887"/>
         <path fill="none" stroke="rgb(52,101,164)" d="M 10719,7852 C 10720,7834 10721,7817 10723,7799"/>
         <path fill="none" stroke="rgb(52,101,164)" d="M 10728,7766 C 10732,7748 10735,7731 10740,7714"/>
         <path fill="none" stroke="rgb(52,101,164)" d="M 10750,7681 C 10755,7664 10761,7648 10768,7631"/>
         <path fill="none" stroke="rgb(52,101,164)" d="M 10782,7600 C 10790,7584 10798,7569 10807,7553"/>
         <path fill="none" stroke="rgb(52,101,164)" d="M 10824,7523 C 10834,7508 10843,7493 10854,7479"/>
         <path fill="none" stroke="rgb(52,101,164)" d="M 10874,7452 C 10885,7438 10897,7425 10909,7412"/>
         <path fill="none" stroke="rgb(52,101,164)" d="M 10933,7388 C 10946,7375 10959,7364 10973,7353"/>
         <path fill="none" stroke="rgb(52,101,164)" d="M 11000,7332 C 11014,7321 11029,7311 11044,7302"/>
         <path fill="none" stroke="rgb(52,101,164)" d="M 11073,7284 C 11075,7283 11076,7283 11077,7282 11092,7274 11106,7266 11120,7259"/>
         <path fill="none" stroke="rgb(52,101,164)" d="M 11151,7245 C 11168,7237 11184,7231 11201,7225"/>
         <path fill="none" stroke="rgb(52,101,164)" d="M 11233,7215 C 11250,7210 11267,7206 11285,7202"/>
         <path fill="none" stroke="rgb(52,101,164)" d="M 11318,7196 C 11336,7193 11353,7191 11371,7190"/>
        </g>
       </g>
       <g class="Graphic">
        <g id="id4">
         <rect class="BoundingBox" stroke="none" fill="none" x="10688" y="7100" width="1613" height="1621"/>
         <path fill="rgb(238,238,238)" stroke="none" d="M 11480,7116 C 11047,7116 10695,7474 10695,7915 10695,8356 11047,8713 11480,8713 11914,8713 12265,8356 12265,7915 12265,7474 11914,7116 11480,7116 L 11480,7116 Z M 11480,8610 C 11357,8610 11257,8527 11257,8423 L 11704,8423 C 11704,8527 11604,8610 11480,8610 L 11480,8610 Z M 11849,8361 L 11111,8361 11111,8225 11849,8225 11849,8361 11849,8361 Z M 11847,8155 L 11113,8155 C 11111,8152 11108,8150 11106,8147 11030,8053 11013,8005 10995,7955 10995,7954 11087,7974 11152,7989 11152,7989 11186,7997 11235,8006 11188,7950 11160,7879 11160,7806 11160,7646 11280,7506 11237,7393 11279,7396 11325,7484 11328,7621 11373,7557 11391,7442 11391,7371 11391,7297 11439,7212 11487,7209 11444,7280 11498,7341 11545,7492 11563,7549 11561,7645 11574,7705 11579,7579 11600,7396 11679,7332 11644,7412 11684,7512 11711,7560 11755,7638 11782,7696 11782,7807 11782,7882 11755,7952 11709,8007 11761,7997 11797,7988 11797,7988 L 11965,7954 C 11965,7954 11941,8057 11847,8155 L 11847,8155 Z"/>
        </g>
       </g>
      </g>
      <g class="Group">
       <g class="com.sun.star.drawing.ClosedBezierShape">
        <g id="id5">
         <rect class="BoundingBox" stroke="none" fill="none" x="6500" y="10278" width="1621" height="1619"/>
         <path fill="rgb(237,237,238)" stroke="none" d="M 8120,11087 C 8120,11534 7757,11896 7308,11896 6861,11896 6500,11534 6500,11087 6500,10641 6861,10279 7308,10279 7757,10279 8120,10641 8120,11087 Z"/>
        </g>
       </g>
       <g class="com.sun.star.drawing.ClosedBezierShape">
        <g id="id6">
         <rect class="BoundingBox" stroke="none" fill="none" x="6940" y="10533" width="739" height="1030"/>
         <path fill="rgb(1,1,1)" stroke="none" d="M 6978,10607 C 6978,10588 6994,10570 7014,10570 L 7604,10570 C 7625,10570 7641,10588 7641,10607 L 7641,11488 C 7641,11507 7625,11524 7604,11524 L 7014,11524 C 6994,11524 6978,11507 6978,11488 L 6978,10607 Z M 7014,11561 L 7604,11561 C 7645,11561 7677,11528 7677,11488 L 7677,10607 C 7677,10567 7645,10534 7604,10534 L 7014,10534 C 6974,10534 6941,10567 6941,10607 L 6941,11488 C 6941,11528 6974,11561 7014,11561 Z"/>
        </g>
       </g>
       <g class="com.sun.star.drawing.ClosedBezierShape">
        <g id="id7">
         <rect class="BoundingBox" stroke="none" fill="none" x="7115" y="10726" width="382" height="41"/>
         <path fill="rgb(1,1,1)" stroke="none" d="M 7134,10765 L 7478,10765 C 7487,10765 7495,10757 7495,10744 7495,10735 7487,10727 7478,10727 L 7134,10727 C 7123,10727 7115,10735 7115,10744 7115,10757 7123,10765 7134,10765 Z"/>
        </g>
       </g>
       <g class="com.sun.star.drawing.ClosedBezierShape">
        <g id="id8">
         <rect class="BoundingBox" stroke="none" fill="none" x="7423" y="11602" width="134" height="40"/>
         <path fill="rgb(1,1,1)" stroke="none" d="M 7556,11622 C 7556,11612 7548,11602 7537,11602 L 7441,11602 C 7431,11602 7423,11612 7423,11622 7423,11633 7431,11641 7441,11641 L 7537,11641 C 7548,11641 7556,11633 7556,11622 Z"/>
        </g>
       </g>
       <g class="com.sun.star.drawing.ClosedBezierShape">
        <g id="id9">
         <rect class="BoundingBox" stroke="none" fill="none" x="7067" y="11602" width="134" height="40"/>
         <path fill="rgb(1,1,1)" stroke="none" d="M 7086,11641 L 7182,11641 C 7192,11641 7200,11633 7200,11622 7200,11612 7192,11602 7182,11602 L 7086,11602 C 7075,11602 7067,11612 7067,11622 7067,11633 7075,11641 7086,11641 Z"/>
        </g>
       </g>
       <g class="com.sun.star.drawing.ClosedBezierShape">
        <g id="id10">
         <rect class="BoundingBox" stroke="none" fill="none" x="7115" y="10847" width="382" height="41"/>
         <path fill="rgb(1,1,1)" stroke="none" d="M 7134,10886 L 7478,10886 C 7487,10886 7495,10878 7495,10869 7495,10856 7487,10848 7478,10848 L 7134,10848 C 7123,10848 7115,10856 7115,10869 7115,10878 7123,10886 7134,10886 Z"/>
        </g>
       </g>
       <g class="com.sun.star.drawing.ClosedBezierShape">
        <g id="id11">
         <rect class="BoundingBox" stroke="none" fill="none" x="7115" y="10970" width="382" height="41"/>
         <path fill="rgb(1,1,1)" stroke="none" d="M 7134,11009 L 7478,11009 C 7487,11009 7495,11000 7495,10988 7495,10979 7487,10971 7478,10971 L 7134,10971 C 7123,10971 7115,10979 7115,10988 7115,11000 7123,11009 7134,11009 Z"/>
        </g>
       </g>
      </g>
      <g class="Group">
       <g class="com.sun.star.drawing.ClosedBezierShape">
        <g id="id12">
         <rect class="BoundingBox" stroke="none" fill="none" x="9717" y="10278" width="1622" height="1619"/>
         <path fill="rgb(237,237,238)" stroke="none" d="M 11337,11087 C 11337,11534 10975,11896 10526,11896 10078,11896 9717,11534 9717,11087 9717,10641 10078,10279 10526,10279 10975,10279 11337,10641 11337,11087 Z"/>
        </g>
       </g>
       <g class="com.sun.star.drawing.ClosedBezierShape">
        <g id="id13">
         <rect class="BoundingBox" stroke="none" fill="none" x="10158" y="10533" width="738" height="1030"/>
         <path fill="rgb(1,1,1)" stroke="none" d="M 10195,10607 C 10195,10588 10211,10570 10232,10570 L 10821,10570 C 10842,10570 10858,10588 10858,10607 L 10858,11488 C 10858,11507 10842,11524 10821,11524 L 10232,11524 C 10211,11524 10195,11507 10195,11488 L 10195,10607 Z M 10232,11561 L 10821,11561 C 10863,11561 10895,11528 10895,11488 L 10895,10607 C 10895,10567 10863,10534 10821,10534 L 10232,10534 C 10192,10534 10158,10567 10158,10607 L 10158,11488 C 10158,11528 10192,11561 10232,11561 Z"/>
        </g>
       </g>
       <g class="com.sun.star.drawing.ClosedBezierShape">
        <g id="id14">
         <rect class="BoundingBox" stroke="none" fill="none" x="10332" y="10726" width="382" height="41"/>
         <path fill="rgb(1,1,1)" stroke="none" d="M 10352,10765 L 10695,10765 C 10705,10765 10713,10757 10713,10744 10713,10735 10705,10727 10695,10727 L 10352,10727 C 10340,10727 10332,10735 10332,10744 10332,10757 10340,10765 10352,10765 Z"/>
        </g>
       </g>
       <g class="com.sun.star.drawing.ClosedBezierShape">
        <g id="id15">
         <rect class="BoundingBox" stroke="none" fill="none" x="10640" y="11602" width="135" height="40"/>
         <path fill="rgb(1,1,1)" stroke="none" d="M 10773,11622 C 10773,11612 10765,11602 10754,11602 L 10658,11602 C 10649,11602 10641,11612 10641,11622 10641,11633 10649,11641 10658,11641 L 10754,11641 C 10765,11641 10773,11633 10773,11622 Z"/>
        </g>
       </g>
       <g class="com.sun.star.drawing.ClosedBezierShape">
        <g id="id16">
         <rect class="BoundingBox" stroke="none" fill="none" x="10284" y="11602" width="135" height="40"/>
         <path fill="rgb(1,1,1)" stroke="none" d="M 10304,11641 L 10400,11641 C 10409,11641 10417,11633 10417,11622 10417,11612 10409,11602 10400,11602 L 10304,11602 C 10293,11602 10285,11612 10285,11622 10285,11633 10293,11641 10304,11641 Z"/>
        </g>
       </g>
       <g class="com.sun.star.drawing.ClosedBezierShape">
        <g id="id17">
         <rect class="BoundingBox" stroke="none" fill="none" x="10332" y="10847" width="382" height="41"/>
         <path fill="rgb(1,1,1)" stroke="none" d="M 10352,10886 L 10695,10886 C 10705,10886 10713,10878 10713,10869 10713,10856 10705,10848 10695,10848 L 10352,10848 C 10340,10848 10332,10856 10332,10869 10332,10878 10340,10886 10352,10886 Z"/>
        </g>
       </g>
       <g class="com.sun.star.drawing.ClosedBezierShape">
        <g id="id18">
         <rect class="BoundingBox" stroke="none" fill="none" x="10332" y="10970" width="382" height="41"/>
         <path fill="rgb(1,1,1)" stroke="none" d="M 10352,11009 L 10695,11009 C 10705,11009 10713,11000 10713,10988 10713,10979 10705,10971 10695,10971 L 10352,10971 C 10340,10971 10332,10979 10332,10988 10332,11000 10340,11009 10352,11009 Z"/>
        </g>
       </g>
      </g>
      <g class="Group">
       <g class="com.sun.star.drawing.ClosedBezierShape">
        <g id="id19">
         <rect class="BoundingBox" stroke="none" fill="none" x="12912" y="10278" width="1622" height="1619"/>
         <path fill="rgb(237,237,238)" stroke="none" d="M 14532,11087 C 14532,11534 14170,11896 13721,11896 13273,11896 12912,11534 12912,11087 12912,10641 13273,10279 13721,10279 14170,10279 14532,10641 14532,11087 Z"/>
        </g>
       </g>
       <g class="com.sun.star.drawing.ClosedBezierShape">
        <g id="id20">
         <rect class="BoundingBox" stroke="none" fill="none" x="13353" y="10533" width="738" height="1030"/>
         <path fill="rgb(1,1,1)" stroke="none" d="M 13390,10607 C 13390,10588 13406,10570 13427,10570 L 14016,10570 C 14037,10570 14053,10588 14053,10607 L 14053,11488 C 14053,11507 14037,11524 14016,11524 L 13427,11524 C 13406,11524 13390,11507 13390,11488 L 13390,10607 Z M 13427,11561 L 14016,11561 C 14058,11561 14090,11528 14090,11488 L 14090,10607 C 14090,10567 14058,10534 14016,10534 L 13427,10534 C 13387,10534 13353,10567 13353,10607 L 13353,11488 C 13353,11528 13387,11561 13427,11561 Z"/>
        </g>
       </g>
       <g class="com.sun.star.drawing.ClosedBezierShape">
        <g id="id21">
         <rect class="BoundingBox" stroke="none" fill="none" x="13527" y="10726" width="382" height="41"/>
         <path fill="rgb(1,1,1)" stroke="none" d="M 13547,10765 L 13890,10765 C 13900,10765 13908,10757 13908,10744 13908,10735 13900,10727 13890,10727 L 13547,10727 C 13535,10727 13527,10735 13527,10744 13527,10757 13535,10765 13547,10765 Z"/>
        </g>
       </g>
       <g class="com.sun.star.drawing.ClosedBezierShape">
        <g id="id22">
         <rect class="BoundingBox" stroke="none" fill="none" x="13835" y="11602" width="135" height="40"/>
         <path fill="rgb(1,1,1)" stroke="none" d="M 13968,11622 C 13968,11612 13960,11602 13949,11602 L 13853,11602 C 13844,11602 13836,11612 13836,11622 13836,11633 13844,11641 13853,11641 L 13949,11641 C 13960,11641 13968,11633 13968,11622 Z"/>
        </g>
       </g>
       <g class="com.sun.star.drawing.ClosedBezierShape">
        <g id="id23">
         <rect class="BoundingBox" stroke="none" fill="none" x="13479" y="11602" width="135" height="40"/>
         <path fill="rgb(1,1,1)" stroke="none" d="M 13499,11641 L 13595,11641 C 13604,11641 13612,11633 13612,11622 13612,11612 13604,11602 13595,11602 L 13499,11602 C 13488,11602 13480,11612 13480,11622 13480,11633 13488,11641 13499,11641 Z"/>
        </g>
       </g>
       <g class="com.sun.star.drawing.ClosedBezierShape">
        <g id="id24">
         <rect class="BoundingBox" stroke="none" fill="none" x="13527" y="10847" width="382" height="41"/>
         <path fill="rgb(1,1,1)" stroke="none" d="M 13547,10886 L 13890,10886 C 13900,10886 13908,10878 13908,10869 13908,10856 13900,10848 13890,10848 L 13547,10848 C 13535,10848 13527,10856 13527,10869 13527,10878 13535,10886 13547,10886 Z"/>
        </g>
       </g>
       <g class="com.sun.star.drawing.ClosedBezierShape">
        <g id="id25">
         <rect class="BoundingBox" stroke="none" fill="none" x="13527" y="10970" width="382" height="41"/>
         <path fill="rgb(1,1,1)" stroke="none" d="M 13547,11009 L 13890,11009 C 13900,11009 13908,11000 13908,10988 13908,10979 13900,10971 13890,10971 L 13547,10971 C 13535,10971 13527,10979 13527,10988 13527,11000 13535,11009 13547,11009 Z"/>
        </g>
       </g>
      </g>
      <g class="Group">
       <g class="com.sun.star.drawing.ClosedBezierShape">
        <g id="id26">
         <rect class="BoundingBox" stroke="none" fill="none" x="16107" y="10278" width="1622" height="1619"/>
         <path fill="rgb(237,237,238)" stroke="none" d="M 17727,11087 C 17727,11534 17365,11896 16916,11896 16468,11896 16107,11534 16107,11087 16107,10641 16468,10279 16916,10279 17365,10279 17727,10641 17727,11087 Z"/>
        </g>
       </g>
       <g class="com.sun.star.drawing.ClosedBezierShape">
        <g id="id27">
         <rect class="BoundingBox" stroke="none" fill="none" x="16548" y="10533" width="738" height="1030"/>
         <path fill="rgb(1,1,1)" stroke="none" d="M 16585,10607 C 16585,10588 16601,10570 16622,10570 L 17211,10570 C 17232,10570 17248,10588 17248,10607 L 17248,11488 C 17248,11507 17232,11524 17211,11524 L 16622,11524 C 16601,11524 16585,11507 16585,11488 L 16585,10607 Z M 16622,11561 L 17211,11561 C 17253,11561 17285,11528 17285,11488 L 17285,10607 C 17285,10567 17253,10534 17211,10534 L 16622,10534 C 16582,10534 16548,10567 16548,10607 L 16548,11488 C 16548,11528 16582,11561 16622,11561 Z"/>
        </g>
       </g>
       <g class="com.sun.star.drawing.ClosedBezierShape">
        <g id="id28">
         <rect class="BoundingBox" stroke="none" fill="none" x="16722" y="10726" width="382" height="41"/>
         <path fill="rgb(1,1,1)" stroke="none" d="M 16742,10765 L 17085,10765 C 17095,10765 17103,10757 17103,10744 17103,10735 17095,10727 17085,10727 L 16742,10727 C 16730,10727 16722,10735 16722,10744 16722,10757 16730,10765 16742,10765 Z"/>
        </g>
       </g>
       <g class="com.sun.star.drawing.ClosedBezierShape">
        <g id="id29">
         <rect class="BoundingBox" stroke="none" fill="none" x="17030" y="11602" width="135" height="40"/>
         <path fill="rgb(1,1,1)" stroke="none" d="M 17163,11622 C 17163,11612 17155,11602 17144,11602 L 17048,11602 C 17039,11602 17031,11612 17031,11622 17031,11633 17039,11641 17048,11641 L 17144,11641 C 17155,11641 17163,11633 17163,11622 Z"/>
        </g>
       </g>
       <g class="com.sun.star.drawing.ClosedBezierShape">
        <g id="id30">
         <rect class="BoundingBox" stroke="none" fill="none" x="16674" y="11602" width="135" height="40"/>
         <path fill="rgb(1,1,1)" stroke="none" d="M 16694,11641 L 16790,11641 C 16799,11641 16807,11633 16807,11622 16807,11612 16799,11602 16790,11602 L 16694,11602 C 16683,11602 16675,11612 16675,11622 16675,11633 16683,11641 16694,11641 Z"/>
        </g>
       </g>
       <g class="com.sun.star.drawing.ClosedBezierShape">
        <g id="id31">
         <rect class="BoundingBox" stroke="none" fill="none" x="16722" y="10847" width="382" height="41"/>
         <path fill="rgb(1,1,1)" stroke="none" d="M 16742,10886 L 17085,10886 C 17095,10886 17103,10878 17103,10869 17103,10856 17095,10848 17085,10848 L 16742,10848 C 16730,10848 16722,10856 16722,10869 16722,10878 16730,10886 16742,10886 Z"/>
        </g>
       </g>
       <g class="com.sun.star.drawing.ClosedBezierShape">
        <g id="id32">
         <rect class="BoundingBox" stroke="none" fill="none" x="16722" y="10970" width="382" height="41"/>
         <path fill="rgb(1,1,1)" stroke="none" d="M 16742,11009 L 17085,11009 C 17095,11009 17103,11000 17103,10988 17103,10979 17095,10971 17085,10971 L 16742,10971 C 16730,10971 16722,10979 16722,10988 16722,11000 16730,11009 16742,11009 Z"/>
        </g>
       </g>
      </g>
      <g class="Group">
       <g class="com.sun.star.drawing.ClosedBezierShape">
        <g id="id33">
         <rect class="BoundingBox" stroke="none" fill="none" x="19280" y="10254" width="1621" height="1620"/>
         <path fill="rgb(237,237,238)" stroke="none" d="M 20900,11063 C 20900,11510 20537,11872 20088,11872 19641,11872 19280,11510 19280,11063 19280,10617 19641,10255 20088,10255 20537,10255 20900,10617 20900,11063 Z"/>
        </g>
       </g>
       <g class="com.sun.star.drawing.ClosedBezierShape">
        <g id="id34">
         <rect class="BoundingBox" stroke="none" fill="none" x="19721" y="10509" width="738" height="1030"/>
         <path fill="rgb(1,1,1)" stroke="none" d="M 19758,10583 C 19758,10564 19774,10547 19795,10547 L 20384,10547 C 20405,10547 20421,10564 20421,10583 L 20421,11464 C 20421,11483 20405,11500 20384,11500 L 19795,11500 C 19774,11500 19758,11483 19758,11464 L 19758,10583 Z M 19795,11537 L 20384,11537 C 20426,11537 20457,11504 20457,11464 L 20457,10583 C 20457,10543 20426,10510 20384,10510 L 19795,10510 C 19755,10510 19721,10543 19721,10583 L 19721,11464 C 19721,11504 19755,11537 19795,11537 Z"/>
        </g>
       </g>
       <g class="com.sun.star.drawing.ClosedBezierShape">
        <g id="id35">
         <rect class="BoundingBox" stroke="none" fill="none" x="19895" y="10702" width="382" height="41"/>
         <path fill="rgb(1,1,1)" stroke="none" d="M 19914,10741 L 20258,10741 C 20267,10741 20275,10733 20275,10720 20275,10711 20267,10703 20258,10703 L 19914,10703 C 19903,10703 19895,10711 19895,10720 19895,10733 19903,10741 19914,10741 Z"/>
        </g>
       </g>
       <g class="com.sun.star.drawing.ClosedBezierShape">
        <g id="id36">
         <rect class="BoundingBox" stroke="none" fill="none" x="20203" y="11578" width="135" height="40"/>
         <path fill="rgb(1,1,1)" stroke="none" d="M 20336,11598 C 20336,11588 20328,11579 20317,11579 L 20221,11579 C 20211,11579 20203,11588 20203,11598 20203,11609 20211,11617 20221,11617 L 20317,11617 C 20328,11617 20336,11609 20336,11598 Z"/>
        </g>
       </g>
       <g class="com.sun.star.drawing.ClosedBezierShape">
        <g id="id37">
         <rect class="BoundingBox" stroke="none" fill="none" x="19847" y="11578" width="134" height="40"/>
         <path fill="rgb(1,1,1)" stroke="none" d="M 19866,11617 L 19962,11617 C 19972,11617 19980,11609 19980,11598 19980,11588 19972,11579 19962,11579 L 19866,11579 C 19855,11579 19847,11588 19847,11598 19847,11609 19855,11617 19866,11617 Z"/>
        </g>
       </g>
       <g class="com.sun.star.drawing.ClosedBezierShape">
        <g id="id38">
         <rect class="BoundingBox" stroke="none" fill="none" x="19895" y="10824" width="382" height="40"/>
         <path fill="rgb(1,1,1)" stroke="none" d="M 19914,10862 L 20258,10862 C 20267,10862 20275,10854 20275,10845 20275,10832 20267,10824 20258,10824 L 19914,10824 C 19903,10824 19895,10832 19895,10845 19895,10854 19903,10862 19914,10862 Z"/>
        </g>
       </g>
       <g class="com.sun.star.drawing.ClosedBezierShape">
        <g id="id39">
         <rect class="BoundingBox" stroke="none" fill="none" x="19895" y="10946" width="382" height="41"/>
         <path fill="rgb(1,1,1)" stroke="none" d="M 19914,10985 L 20258,10985 C 20267,10985 20275,10976 20275,10964 20275,10955 20267,10947 20258,10947 L 19914,10947 C 19903,10947 19895,10955 19895,10964 19895,10976 19903,10985 19914,10985 Z"/>
        </g>
       </g>
      </g>
      <g class="Group">
       <g class="com.sun.star.drawing.ClosedBezierShape">
        <g id="id40">
         <rect class="BoundingBox" stroke="none" fill="none" x="13975" y="5472" width="117" height="23"/>
         <path fill="rgb(252,212,8)" stroke="none" d="M 14072,5493 L 14036,5493 C 14020,5489 13999,5483 13976,5473 L 14091,5473 C 14085,5480 14079,5486 14072,5493 Z"/>
        </g>
       </g>
       <g class="com.sun.star.drawing.ClosedBezierShape">
        <g id="id41">
         <rect class="BoundingBox" stroke="none" fill="none" x="13905" y="5431" width="218" height="64"/>
         <path fill="rgb(252,207,9)" stroke="none" d="M 14072,5493 L 14036,5493 C 14004,5485 13952,5468 13906,5431 L 14121,5431 C 14109,5451 14093,5472 14072,5493 Z"/>
        </g>
       </g>
       <g class="com.sun.star.drawing.ClosedBezierShape">
        <g id="id42">
         <rect class="BoundingBox" stroke="none" fill="none" x="13304" y="5389" width="840" height="99"/>
         <path fill="rgb(251,203,10)" stroke="none" d="M 14078,5487 L 14013,5487 C 13969,5473 13908,5445 13865,5390 L 14143,5390 C 14130,5419 14110,5453 14078,5487 Z M 13319,5431 C 13319,5431 13311,5416 13304,5390 L 13535,5390 C 13485,5412 13411,5434 13319,5431 Z"/>
        </g>
       </g>
       <g class="com.sun.star.drawing.ClosedBezierShape">
        <g id="id43">
         <rect class="BoundingBox" stroke="none" fill="none" x="13295" y="5348" width="864" height="99"/>
         <path fill="rgb(251,199,11)" stroke="none" d="M 14112,5445 L 13925,5445 C 13902,5430 13880,5411 13862,5386 L 13853,5386 13844,5386 13841,5386 13835,5386 13798,5386 C 13749,5383 13700,5378 13652,5366 13633,5361 13618,5358 13603,5352 13581,5366 13478,5437 13319,5431 13319,5431 13303,5399 13295,5348 L 14157,5348 C 14150,5375 14137,5409 14112,5445 Z"/>
        </g>
       </g>
       <g class="com.sun.star.drawing.ClosedBezierShape">
        <g id="id44">
         <rect class="BoundingBox" stroke="none" fill="none" x="13291" y="5306" width="874" height="100"/>
         <path fill="rgb(250,195,12)" stroke="none" d="M 14136,5405 L 13877,5405 C 13872,5399 13867,5393 13862,5386 L 13853,5386 13844,5386 13841,5386 13835,5386 13798,5386 C 13749,5383 13700,5378 13652,5366 13633,5361 13618,5358 13603,5352 13591,5360 13554,5385 13497,5405 L 13309,5405 C 13301,5383 13293,5348 13291,5307 L 14164,5307 C 14163,5324 14158,5360 14136,5405 Z"/>
        </g>
       </g>
       <g class="com.sun.star.drawing.ClosedBezierShape">
        <g id="id45">
         <rect class="BoundingBox" stroke="none" fill="none" x="13291" y="5265" width="911" height="100"/>
         <path fill="rgb(250,191,13)" stroke="none" d="M 14161,5293 L 14164,5296 C 14164,5296 14166,5323 14153,5363 L 13640,5363 C 13627,5359 13615,5357 13603,5352 13599,5355 13594,5358 13586,5363 L 13298,5363 C 13292,5336 13289,5303 13293,5265 L 14200,5265 C 14188,5275 14175,5284 14161,5293 Z"/>
        </g>
       </g>
       <g class="com.sun.star.drawing.ClosedBezierShape">
        <g id="id46">
         <rect class="BoundingBox" stroke="none" fill="none" x="13291" y="5223" width="959" height="100"/>
         <path fill="rgb(250,186,14)" stroke="none" d="M 14219,5251 C 14201,5265 14182,5279 14161,5293 L 14164,5296 C 14164,5296 14165,5306 14162,5322 L 13292,5322 C 13290,5293 13291,5259 13300,5224 L 14249,5224 C 14239,5233 14229,5242 14219,5251 Z"/>
        </g>
       </g>
       <g class="com.sun.star.drawing.ClosedBezierShape">
        <g id="id47">
         <rect class="BoundingBox" stroke="none" fill="none" x="13291" y="5182" width="999" height="100"/>
         <path fill="rgb(249,182,16)" stroke="none" d="M 14219,5251 C 14206,5261 14194,5270 14180,5280 L 13292,5280 C 13293,5250 13299,5217 13312,5182 L 14288,5182 C 14267,5206 14244,5230 14219,5251 Z"/>
        </g>
       </g>
       <g class="com.sun.star.drawing.ClosedBezierShape">
        <g id="id48">
         <rect class="BoundingBox" stroke="none" fill="none" x="13273" y="5140" width="1049" height="100"/>
         <path fill="rgb(249,178,17)" stroke="none" d="M 13706,5158 C 13740,5167 13774,5172 13807,5175 L 13831,5175 13835,5175 C 13835,5175 13838,5175 13835,5175 L 13838,5175 13847,5175 13853,5175 13856,5175 13859,5175 C 13877,5172 13892,5172 13908,5169 13938,5164 13969,5155 13999,5144 14002,5143 14005,5142 14008,5141 L 14321,5141 C 14320,5143 14318,5145 14316,5147 14293,5179 14264,5210 14233,5239 L 13297,5239 C 13300,5220 13305,5200 13313,5181 13301,5169 13289,5158 13276,5144 13275,5143 13274,5142 13273,5141 L 13651,5141 C 13669,5147 13687,5153 13706,5158 Z"/>
        </g>
       </g>
       <g class="com.sun.star.drawing.ClosedBezierShape">
        <g id="id49">
         <rect class="BoundingBox" stroke="none" fill="none" x="13239" y="5099" width="1231" height="100"/>
         <path fill="rgb(248,174,18)" stroke="none" d="M 13612,5124 C 13642,5138 13673,5150 13706,5158 13740,5167 13774,5172 13807,5175 L 13831,5175 13835,5175 C 13835,5175 13838,5175 13835,5175 L 13838,5175 13847,5175 13853,5175 13856,5175 13859,5175 C 13877,5172 13892,5172 13908,5169 13938,5164 13969,5155 13999,5144 14028,5133 14055,5118 14080,5099 L 14469,5099 C 14437,5117 14385,5139 14323,5136 14323,5138 14320,5144 14316,5147 14304,5164 14290,5181 14275,5197 L 13307,5197 C 13309,5192 13311,5186 13313,5181 13301,5169 13289,5158 13276,5144 13263,5130 13251,5114 13240,5099 L 13565,5099 C 13580,5108 13596,5117 13612,5124 Z"/>
        </g>
       </g>
       <g class="com.sun.star.drawing.ClosedBezierShape">
        <g id="id50">
         <rect class="BoundingBox" stroke="none" fill="none" x="13211" y="5058" width="1293" height="99"/>
         <path fill="rgb(248,170,19)" stroke="none" d="M 13612,5124 C 13639,5137 13667,5147 13697,5156 L 13287,5156 C 13283,5152 13280,5148 13276,5144 13252,5117 13231,5088 13212,5059 L 13510,5059 C 13540,5084 13574,5107 13612,5124 Z M 13999,5144 C 14047,5125 14091,5095 14125,5059 L 14499,5059 C 14500,5064 14502,5070 14503,5076 14503,5076 14426,5141 14323,5136 14323,5138 14320,5144 14316,5147 14314,5150 14312,5153 14310,5156 L 13965,5156 C 13976,5152 13988,5148 13999,5144 Z"/>
        </g>
       </g>
       <g class="com.sun.star.drawing.ClosedBezierShape">
        <g id="id51">
         <rect class="BoundingBox" stroke="none" fill="none" x="13092" y="5017" width="1412" height="98"/>
         <path fill="rgb(248,165,20)" stroke="none" d="M 13591,5114 L 13251,5114 C 13234,5092 13218,5069 13203,5045 13203,5045 13157,5042 13092,5017 L 13466,5017 C 13502,5055 13544,5089 13591,5114 Z M 14146,5034 C 14150,5029 14154,5023 14159,5017 L 14486,5017 C 14493,5034 14499,5054 14503,5076 14503,5076 14478,5097 14439,5114 L 14058,5114 C 14092,5092 14122,5065 14146,5034 Z"/>
        </g>
       </g>
       <g class="com.sun.star.drawing.ClosedBezierShape">
        <g id="id52">
         <rect class="BoundingBox" stroke="none" fill="none" x="13008" y="4975" width="1495" height="99"/>
         <path fill="rgb(247,161,21)" stroke="none" d="M 13456,5006 C 13478,5030 13501,5052 13527,5072 L 13221,5072 C 13215,5063 13209,5054 13203,5045 13203,5045 13113,5039 13009,4976 L 13432,4976 C 13440,4986 13448,4996 13456,5006 Z M 14146,5034 C 14160,5016 14173,4997 14183,4976 L 14464,4976 C 14480,5000 14495,5032 14502,5072 L 14111,5072 C 14124,5061 14135,5048 14146,5034 Z M 13960,4984 C 13950,4989 13941,4992 13932,4995 13926,4995 13923,4998 13917,4998 13914,5000 13911,5000 13908,5000 L 13899,5000 13896,5000 13892,5000 13889,5000 13883,5000 13880,5000 13877,5000 13868,5000 C 13847,5000 13822,4998 13798,4992 13783,4988 13767,4983 13752,4976 L 13975,4976 C 13970,4979 13965,4982 13960,4984 Z"/>
        </g>
       </g>
       <g class="com.sun.star.drawing.ClosedBezierShape">
        <g id="id53">
         <rect class="BoundingBox" stroke="none" fill="none" x="12950" y="4934" width="1543" height="98"/>
         <path fill="rgb(247,157,22)" stroke="none" d="M 13456,5006 C 13464,5015 13472,5023 13480,5031 L 13133,5031 C 13084,5017 13017,4989 12951,4934 L 13405,4934 C 13420,4959 13437,4983 13456,5006 Z M 14191,4958 C 14195,4950 14198,4942 14201,4934 L 14430,4934 C 14449,4952 14475,4983 14491,5031 L 14148,5031 C 14165,5009 14180,4985 14191,4958 Z M 13816,4936 C 13831,4941 13850,4947 13868,4950 L 13874,4950 13877,4950 13880,4950 13886,4950 13892,4950 13899,4950 13905,4950 13917,4950 C 13926,4947 13935,4947 13941,4944 13950,4941 13957,4939 13963,4936 13966,4936 13966,4933 13972,4939 13978,4933 13987,4936 13993,4941 13999,4947 13999,4958 13990,4964 L 13984,4969 C 13975,4975 13969,4981 13960,4984 13950,4989 13941,4992 13932,4995 13926,4995 13923,4998 13917,4998 13914,5000 13911,5000 13908,5000 L 13899,5000 13896,5000 13892,5000 13889,5000 13883,5000 13880,5000 13877,5000 13868,5000 C 13847,5000 13822,4998 13798,4992 13774,4986 13749,4975 13725,4961 13712,4953 13699,4944 13688,4934 L 13813,4934 C 13814,4935 13815,4935 13816,4936 Z"/>
        </g>
       </g>
       <g class="com.sun.star.drawing.ClosedBezierShape">
        <g id="id54">
         <rect class="BoundingBox" stroke="none" fill="none" x="12905" y="4892" width="1569" height="99"/>
         <path fill="rgb(246,153,23)" stroke="none" d="M 13401,4927 C 13413,4949 13427,4970 13443,4989 L 13033,4989 C 12992,4967 12948,4936 12905,4892 L 13384,4892 C 13389,4904 13395,4916 13401,4927 Z M 14191,4958 C 14198,4944 14204,4930 14207,4916 14210,4908 14210,4902 14213,4899 14213,4897 14213,4895 14213,4892 L 14408,4892 14408,4896 C 14405,4902 14405,4910 14405,4916 L 14408,4916 C 14408,4916 14444,4939 14473,4989 L 14176,4989 C 14182,4979 14187,4969 14191,4958 Z M 13767,4905 C 13783,4919 13798,4927 13816,4936 13831,4941 13850,4947 13868,4950 L 13874,4950 13877,4950 13880,4950 13886,4950 13892,4950 13899,4950 13905,4950 13917,4950 C 13926,4947 13935,4947 13941,4944 13950,4941 13957,4939 13963,4936 13966,4936 13966,4933 13972,4939 13978,4933 13987,4936 13993,4941 13999,4947 13999,4958 13990,4964 L 13984,4969 C 13975,4975 13969,4981 13960,4984 13956,4986 13952,4988 13948,4989 L 13788,4989 C 13767,4983 13746,4973 13725,4961 13700,4947 13679,4927 13661,4905 13657,4901 13654,4897 13651,4892 L 13754,4892 C 13758,4897 13763,4901 13767,4905 Z"/>
        </g>
       </g>
       <g class="com.sun.star.drawing.ClosedBezierShape">
        <g id="id55">
         <rect class="BoundingBox" stroke="none" fill="none" x="12898" y="4850" width="1547" height="99"/>
         <path fill="rgb(246,149,24)" stroke="none" d="M 13401,4927 C 13405,4934 13409,4941 13413,4948 L 12968,4948 C 12945,4930 12921,4910 12898,4885 12898,4885 12902,4872 12912,4851 L 13368,4851 C 13376,4876 13388,4902 13401,4927 Z M 14207,4916 C 14210,4908 14210,4902 14213,4899 14213,4891 14216,4885 14216,4877 14219,4868 14219,4863 14219,4854 L 14219,4851 14408,4851 14408,4851 14408,4854 14408,4863 14408,4896 C 14405,4902 14405,4910 14405,4916 L 14408,4916 C 14408,4916 14424,4926 14443,4948 L 14196,4948 C 14200,4937 14204,4927 14207,4916 Z M 13728,4860 C 13740,4877 13752,4893 13767,4905 13783,4919 13798,4927 13816,4936 13829,4940 13843,4945 13858,4948 L 13705,4948 C 13689,4936 13674,4921 13661,4905 13648,4889 13636,4870 13628,4851 L 13723,4851 C 13725,4854 13726,4857 13728,4860 Z M 13941,4944 C 13950,4941 13957,4939 13963,4936 13966,4936 13966,4933 13972,4939 13978,4933 13987,4936 13993,4941 13995,4943 13996,4945 13997,4948 L 13925,4948 C 13931,4947 13937,4946 13941,4944 Z"/>
        </g>
       </g>
       <g class="com.sun.star.drawing.ClosedBezierShape">
        <g id="id56">
         <rect class="BoundingBox" stroke="none" fill="none" x="12898" y="4809" width="1512" height="99"/>
         <path fill="rgb(245,145,26)" stroke="none" d="M 13365,4843 C 13372,4864 13380,4885 13391,4906 L 12919,4906 C 12912,4900 12905,4892 12898,4885 12898,4885 12908,4852 12935,4809 L 13356,4809 C 13358,4821 13361,4832 13365,4843 Z M 14213,4899 C 14213,4891 14216,4885 14216,4877 14219,4868 14219,4863 14219,4854 L 14219,4843 14219,4837 14219,4832 14219,4826 14219,4820 14219,4815 14219,4809 14408,4809 14408,4815 14408,4823 14408,4832 14408,4840 14408,4846 14408,4848 14408,4851 14408,4854 14408,4863 14408,4896 C 14406,4899 14406,4903 14405,4906 L 14209,4906 C 14210,4903 14211,4901 14213,4899 Z M 13728,4860 C 13740,4877 13752,4893 13767,4905 13768,4905 13769,4906 13769,4906 L 13662,4906 C 13662,4906 13661,4905 13661,4905 13642,4882 13627,4854 13618,4826 13617,4820 13616,4815 13614,4809 L 13708,4809 C 13711,4827 13720,4845 13728,4860 Z"/>
        </g>
       </g>
       <g class="com.sun.star.drawing.ClosedBezierShape">
        <g id="id57">
         <rect class="BoundingBox" stroke="none" fill="none" x="12905" y="4767" width="1505" height="99"/>
         <path fill="rgb(245,140,27)" stroke="none" d="M 13365,4843 C 13367,4850 13370,4857 13373,4865 L 12906,4865 C 12915,4843 12933,4807 12964,4768 L 13350,4768 C 13352,4794 13357,4819 13365,4843 Z M 14219,4854 L 14219,4843 14219,4837 14219,4832 14219,4826 14219,4820 14219,4815 14219,4809 C 14219,4803 14216,4795 14216,4789 14214,4782 14212,4775 14210,4768 L 14403,4768 C 14405,4778 14405,4788 14408,4798 L 14408,4806 14408,4815 14408,4823 14408,4832 14408,4840 14408,4846 14408,4848 14408,4851 14408,4854 14408,4863 14408,4865 14219,4865 C 14219,4861 14219,4858 14219,4854 Z M 13703,4772 C 13703,4784 13703,4795 13706,4803 13709,4823 13719,4843 13728,4860 13729,4861 13730,4863 13731,4865 L 13634,4865 C 13628,4852 13622,4839 13618,4826 13615,4812 13612,4798 13609,4781 L 13609,4770 13609,4768 13703,4768 13703,4772 Z"/>
        </g>
       </g>
       <g class="com.sun.star.drawing.ClosedBezierShape">
        <g id="id58">
         <rect class="BoundingBox" stroke="none" fill="none" x="12925" y="4726" width="1485" height="100"/>
         <path fill="rgb(245,136,28)" stroke="none" d="M 13350,4730 L 13350,4733 13350,4736 13350,4741 13350,4744 13350,4747 13350,4753 C 13350,4777 13353,4801 13359,4824 L 12926,4824 C 12942,4796 12967,4760 13002,4726 L 13350,4726 13350,4730 Z M 14219,4820 L 14219,4815 14219,4809 C 14219,4803 14216,4795 14216,4789 14211,4769 14204,4746 14195,4726 L 14389,4726 C 14394,4739 14398,4751 14402,4764 14405,4775 14405,4786 14408,4798 L 14408,4806 14408,4815 14408,4823 14408,4824 14219,4824 14219,4820 Z M 13706,4741 C 13703,4747 13703,4753 13703,4758 L 13703,4761 13703,4764 13703,4772 C 13703,4784 13703,4795 13706,4803 13707,4810 13709,4817 13712,4824 L 13618,4824 C 13615,4811 13612,4797 13609,4781 L 13609,4770 13609,4764 13609,4758 13609,4736 C 13609,4733 13609,4730 13609,4726 L 13710,4726 C 13709,4731 13708,4736 13706,4741 Z"/>
        </g>
       </g>
       <g class="com.sun.star.drawing.ClosedBezierShape">
        <g id="id59">
         <rect class="BoundingBox" stroke="none" fill="none" x="12952" y="4684" width="1455" height="100"/>
         <path fill="rgb(244,132,29)" stroke="none" d="M 13350,4708 L 13350,4719 13350,4722 13350,4730 13350,4733 13350,4736 13350,4741 13350,4744 13350,4747 13350,4753 C 13350,4763 13350,4773 13351,4783 L 12953,4783 C 12976,4750 13009,4715 13053,4685 L 13351,4685 C 13350,4693 13350,4701 13350,4708 Z M 14188,4713 C 14183,4703 14176,4694 14170,4685 L 14371,4685 C 14384,4710 14394,4737 14402,4764 14404,4770 14404,4777 14405,4783 L 14214,4783 C 14208,4759 14200,4734 14188,4713 Z M 13706,4741 C 13703,4747 13703,4753 13703,4758 L 13703,4761 13703,4764 13703,4772 C 13703,4776 13703,4779 13703,4783 L 13609,4783 C 13609,4782 13609,4782 13609,4781 L 13609,4770 13609,4764 13609,4758 13609,4736 C 13609,4719 13612,4702 13616,4685 L 13727,4685 C 13717,4703 13711,4722 13706,4741 Z"/>
        </g>
       </g>
       <g class="com.sun.star.drawing.ClosedBezierShape">
        <g id="id60">
         <rect class="BoundingBox" stroke="none" fill="none" x="12987" y="4643" width="1541" height="100"/>
         <path fill="rgb(244,128,30)" stroke="none" d="M 14527,4657 C 14527,4663 14521,4668 14515,4668 14509,4671 14503,4665 14500,4660 14498,4654 14496,4649 14494,4643 L 14525,4643 C 14525,4648 14526,4652 14527,4657 Z M 13353,4663 C 13353,4677 13350,4694 13350,4708 L 13350,4719 13350,4722 13350,4730 13350,4733 13350,4736 13350,4741 12987,4741 C 13019,4707 13062,4673 13118,4649 13118,4647 13118,4645 13118,4643 L 13357,4643 C 13355,4650 13354,4657 13353,4663 Z M 14188,4713 C 14173,4687 14154,4664 14131,4643 L 14347,4643 C 14367,4673 14383,4707 14395,4741 L 14201,4741 C 14197,4731 14193,4722 14188,4713 Z M 13706,4741 L 13609,4741 13609,4736 C 13609,4705 13618,4674 13630,4643 L 13754,4643 C 13729,4673 13714,4707 13706,4741 Z"/>
        </g>
       </g>
       <g class="com.sun.star.drawing.ClosedBezierShape">
        <g id="id61">
         <rect class="BoundingBox" stroke="none" fill="none" x="13032" y="4601" width="1496" height="100"/>
         <path fill="rgb(243,124,31)" stroke="none" d="M 14527,4657 C 14527,4663 14521,4668 14515,4668 14509,4671 14503,4665 14500,4660 14493,4643 14487,4626 14481,4606 14481,4605 14481,4603 14480,4602 L 14520,4602 C 14521,4618 14523,4634 14527,4657 Z M 13362,4618 C 13359,4632 13356,4649 13353,4663 13353,4674 13351,4688 13350,4700 L 13033,4700 C 13057,4681 13085,4663 13118,4649 13118,4640 13121,4634 13121,4629 13122,4620 13123,4611 13125,4602 L 13365,4602 C 13364,4607 13363,4613 13362,4618 Z M 14071,4602 L 14316,4602 C 14327,4615 14338,4629 14347,4643 14359,4661 14369,4680 14378,4700 L 14180,4700 C 14153,4659 14115,4625 14071,4602 Z M 13774,4623 C 13749,4646 13731,4672 13720,4700 L 13613,4700 C 13616,4681 13623,4662 13630,4643 13637,4629 13645,4615 13653,4602 L 13802,4602 C 13791,4610 13782,4615 13774,4623 Z"/>
        </g>
       </g>
       <g class="com.sun.star.drawing.ClosedBezierShape">
        <g id="id62">
         <rect class="BoundingBox" stroke="none" fill="none" x="13097" y="4560" width="1431" height="100"/>
         <path fill="rgb(243,119,32)" stroke="none" d="M 14518,4584 C 14521,4606 14521,4626 14527,4657 14527,4657 14527,4658 14527,4658 L 14499,4658 C 14493,4642 14487,4625 14481,4606 14478,4592 14472,4581 14466,4567 14464,4564 14464,4562 14463,4560 L 14515,4560 C 14516,4568 14517,4576 14518,4584 Z M 13374,4573 C 13368,4587 13365,4604 13362,4618 13359,4630 13356,4645 13353,4658 L 13097,4658 C 13104,4655 13111,4652 13118,4649 13118,4640 13121,4634 13121,4629 13124,4605 13129,4582 13134,4560 L 13378,4560 C 13376,4564 13375,4568 13374,4573 Z M 14069,4601 C 14045,4587 14018,4578 13990,4573 13975,4570 13963,4567 13947,4567 L 13941,4567 13938,4567 13932,4567 13929,4567 13911,4567 C 13899,4567 13886,4570 13874,4573 13862,4575 13850,4578 13838,4584 13825,4589 13813,4595 13804,4601 13792,4609 13783,4615 13774,4623 13762,4634 13752,4646 13743,4658 L 13624,4658 C 13626,4653 13628,4648 13630,4643 13645,4614 13662,4587 13684,4560 L 14276,4560 C 14303,4585 14327,4613 14347,4643 14350,4648 14354,4653 14357,4658 L 14147,4658 C 14124,4635 14098,4615 14069,4601 Z"/>
        </g>
       </g>
       <g class="com.sun.star.drawing.ClosedBezierShape">
        <g id="id63">
         <rect class="BoundingBox" stroke="none" fill="none" x="13122" y="4518" width="1401" height="100"/>
         <path fill="rgb(243,115,33)" stroke="none" d="M 14518,4584 C 14519,4595 14520,4605 14521,4617 L 14485,4617 C 14483,4613 14482,4610 14481,4606 14478,4592 14472,4581 14466,4567 14463,4561 14463,4558 14460,4556 14457,4550 14457,4547 14454,4544 14451,4542 14451,4536 14448,4533 14448,4530 14445,4530 14445,4528 14445,4525 14442,4525 14442,4522 14441,4521 14441,4520 14440,4519 L 14507,4519 C 14512,4542 14516,4564 14518,4584 Z M 13374,4573 C 13368,4586 13365,4603 13362,4617 L 13123,4617 C 13128,4582 13137,4550 13146,4519 L 13393,4519 C 13386,4536 13379,4554 13374,4573 Z M 14069,4601 C 14045,4587 14018,4578 13990,4573 13975,4570 13963,4567 13947,4567 L 13941,4567 13938,4567 13932,4567 13929,4567 13911,4567 C 13899,4567 13886,4570 13874,4573 13862,4575 13850,4578 13838,4584 13825,4589 13813,4595 13804,4601 13795,4607 13788,4611 13781,4617 L 13644,4617 C 13657,4596 13671,4576 13688,4556 13700,4542 13713,4530 13727,4519 L 14224,4519 C 14236,4527 14248,4535 14259,4544 14284,4566 14308,4590 14328,4617 L 14097,4617 C 14088,4611 14079,4606 14069,4601 Z"/>
        </g>
       </g>
       <g class="com.sun.star.drawing.ClosedBezierShape">
        <g id="id64">
         <rect class="BoundingBox" stroke="none" fill="none" x="13130" y="4478" width="1388" height="99"/>
         <path fill="rgb(242,111,34)" stroke="none" d="M 14466,4567 C 14463,4561 14463,4558 14460,4556 14457,4550 14457,4547 14454,4544 14451,4542 14451,4536 14448,4533 14448,4530 14445,4530 14445,4528 14445,4525 14442,4525 14442,4522 14434,4507 14425,4493 14415,4478 L 14496,4478 C 14497,4483 14498,4487 14500,4491 14508,4521 14514,4549 14517,4575 L 14470,4575 C 14468,4573 14467,4570 14466,4567 Z M 13407,4485 C 13395,4513 13383,4542 13374,4573 13374,4573 13373,4574 13373,4575 L 13131,4575 C 13137,4550 13144,4526 13151,4502 13153,4494 13157,4486 13160,4478 L 13411,4478 C 13410,4481 13409,4483 13407,4485 Z M 13990,4573 C 13975,4570 13963,4567 13947,4567 L 13941,4567 13938,4567 13932,4567 13929,4567 13911,4567 C 13899,4567 13886,4570 13874,4573 13871,4573 13867,4574 13863,4575 L 13672,4575 C 13677,4569 13682,4562 13688,4556 13713,4528 13743,4505 13777,4485 13781,4483 13785,4480 13789,4478 L 14149,4478 C 14188,4495 14226,4517 14259,4544 14270,4554 14281,4564 14292,4575 L 14002,4575 C 13998,4574 13994,4573 13990,4573 Z"/>
        </g>
       </g>
       <g class="com.sun.star.drawing.ClosedBezierShape">
        <g id="id65">
         <rect class="BoundingBox" stroke="none" fill="none" x="13140" y="4436" width="1371" height="99"/>
         <path fill="rgb(242,107,36)" stroke="none" d="M 14448,4533 C 14448,4530 14445,4530 14445,4528 14445,4525 14442,4525 14442,4522 14427,4493 14407,4466 14384,4437 L 14481,4437 C 14489,4456 14495,4474 14500,4491 14504,4506 14507,4520 14510,4534 L 14448,4534 C 14448,4533 14448,4533 14448,4533 Z M 13407,4485 C 13401,4501 13394,4517 13387,4534 L 13142,4534 C 13145,4523 13148,4512 13151,4502 13154,4491 13160,4480 13163,4468 13159,4463 13151,4452 13140,4437 L 13435,4437 C 13425,4452 13416,4468 13407,4485 Z M 13777,4485 C 13810,4466 13850,4454 13892,4446 13902,4446 13914,4443 13923,4443 L 13932,4443 13941,4443 13944,4443 13947,4443 13950,4443 13960,4443 C 13978,4443 13999,4443 14021,4446 14063,4449 14106,4460 14146,4477 14180,4492 14215,4510 14245,4534 L 13710,4534 C 13730,4515 13752,4500 13777,4485 Z"/>
        </g>
       </g>
       <g class="com.sun.star.drawing.ClosedBezierShape">
        <g id="id66">
         <rect class="BoundingBox" stroke="none" fill="none" x="13116" y="4395" width="1385" height="99"/>
         <path fill="rgb(241,103,37)" stroke="none" d="M 14381,4432 C 14371,4420 14359,4407 14347,4395 L 14463,4395 C 14479,4429 14492,4462 14500,4491 14500,4491 14500,4492 14500,4492 L 14425,4492 C 14412,4472 14397,4453 14381,4432 Z M 13407,4485 C 13406,4488 13405,4490 13405,4492 L 13155,4492 C 13158,4484 13161,4476 13163,4468 13156,4459 13136,4434 13117,4395 L 13464,4395 C 13443,4422 13424,4452 13407,4485 Z M 13777,4485 C 13810,4466 13850,4454 13892,4446 13902,4446 13914,4443 13923,4443 L 13932,4443 13941,4443 13944,4443 13947,4443 13950,4443 13960,4443 C 13978,4443 13999,4443 14021,4446 14063,4449 14106,4460 14146,4477 14157,4482 14168,4487 14178,4492 L 13765,4492 C 13769,4490 13773,4488 13777,4485 Z"/>
        </g>
       </g>
       <g class="com.sun.star.drawing.ClosedBezierShape">
        <g id="id67">
         <rect class="BoundingBox" stroke="none" fill="none" x="13098" y="4353" width="1390" height="99"/>
         <path fill="rgb(241,98,38)" stroke="none" d="M 14381,4432 C 14368,4418 14353,4401 14338,4387 L 14326,4376 14313,4364 14302,4354 14440,4354 C 14445,4362 14449,4370 14454,4378 14467,4403 14478,4427 14487,4451 L 14395,4451 C 14390,4444 14386,4438 14381,4432 Z M 13426,4451 L 13150,4451 C 13136,4431 13115,4398 13099,4354 L 13502,4354 C 13473,4382 13448,4414 13426,4451 Z M 13892,4446 C 13902,4446 13914,4443 13923,4443 L 13932,4443 13941,4443 13944,4443 13947,4443 13950,4443 13960,4443 C 13978,4443 13999,4443 14021,4446 14033,4447 14046,4448 14059,4451 L 13870,4451 C 13878,4449 13885,4447 13892,4446 Z"/>
        </g>
       </g>
       <g class="com.sun.star.drawing.ClosedBezierShape">
        <g id="id68">
         <rect class="BoundingBox" stroke="none" fill="none" x="13085" y="4312" width="1386" height="99"/>
         <path fill="rgb(240,94,39)" stroke="none" d="M 14338,4387 L 14326,4376 14313,4364 14301,4353 14295,4347 14289,4342 C 14277,4331 14263,4322 14249,4312 L 14413,4312 C 14429,4334 14442,4357 14454,4378 14459,4389 14464,4399 14469,4409 L 14360,4409 C 14353,4401 14345,4394 14338,4387 Z M 13548,4314 C 13536,4322 13526,4333 13514,4342 13492,4362 13472,4384 13454,4409 L 13124,4409 C 13110,4384 13096,4351 13085,4312 L 13550,4312 13548,4314 Z"/>
        </g>
       </g>
       <g class="com.sun.star.drawing.ClosedBezierShape">
        <g id="id69">
         <rect class="BoundingBox" stroke="none" fill="none" x="13070" y="3866" width="1379" height="503"/>
         <path fill="rgb(240,90,40)" stroke="none" d="M 14313,4364 L 14301,4353 14295,4347 14289,4342 C 14255,4314 14213,4288 14167,4269 14121,4249 14072,4232 14018,4224 13990,4218 13963,4215 13935,4215 L 13892,4215 13880,4215 13877,4215 C 13880,4215 13877,4215 13877,4215 L 13871,4215 13859,4215 13856,4215 13853,4215 13847,4215 13838,4215 13825,4215 C 13822,4218 13816,4218 13813,4218 13807,4221 13804,4221 13801,4221 L 13795,4221 13789,4221 C 13783,4224 13780,4224 13777,4224 13770,4224 13767,4226 13764,4226 13758,4226 13755,4229 13752,4229 13746,4232 13737,4232 13731,4235 13725,4235 13722,4238 13719,4238 13713,4238 13709,4240 13706,4240 13691,4243 13676,4249 13664,4254 13661,4254 13658,4254 13655,4257 13652,4257 13648,4260 13645,4260 13636,4263 13630,4266 13624,4269 13609,4274 13597,4280 13584,4288 L 13548,4314 C 13536,4322 13526,4333 13514,4342 13505,4350 13497,4359 13488,4368 L 13104,4368 C 13082,4314 13064,4242 13072,4153 13072,4153 13237,4074 13420,4139 13420,4139 13423,4142 13426,4142 13444,4131 13462,4119 13481,4111 13499,4100 13517,4091 13539,4083 13548,4080 13560,4074 13569,4071 13578,4069 13590,4066 13600,4063 13606,4060 13615,4060 13621,4057 L 13621,4052 C 13621,4052 13648,3945 13780,3866 13780,3866 13899,3917 13938,4041 L 13947,4041 C 13966,4041 13984,4046 14002,4049 14021,4055 14036,4057 14054,4063 14072,4069 14088,4074 14103,4080 14109,4083 14112,4083 14115,4086 14137,4071 14198,4038 14292,4043 14292,4043 14347,4122 14323,4212 14338,4226 14353,4240 14368,4257 14402,4293 14427,4331 14448,4368 L 14317,4368 14313,4364 Z"/>
        </g>
       </g>
      </g>
      <g class="com.sun.star.drawing.ConnectorShape">
       <g id="id70">
        <rect class="BoundingBox" stroke="none" fill="none" x="7309" y="8719" width="4187" height="1562"/>
        <path fill="none" stroke="rgb(17,17,17)" d="M 7310,10279 L 11494,8720"/>
       </g>
      </g>
      <g class="com.sun.star.drawing.ConnectorShape">
       <g id="id71">
        <rect class="BoundingBox" stroke="none" fill="none" x="10526" y="8719" width="970" height="1562"/>
        <path fill="none" stroke="rgb(0,0,0)" d="M 10527,10279 L 11494,8720"/>
       </g>
      </g>
      <g class="com.sun.star.drawing.ConnectorShape">
       <g id="id72">
        <rect class="BoundingBox" stroke="none" fill="none" x="11493" y="8719" width="2231" height="1562"/>
        <path fill="none" stroke="rgb(0,0,0)" d="M 13722,10279 L 11494,8720"/>
       </g>
      </g>
      <g class="com.sun.star.drawing.ConnectorShape">
       <g id="id73">
        <rect class="BoundingBox" stroke="none" fill="none" x="11493" y="8719" width="5426" height="1562"/>
        <path fill="none" stroke="rgb(0,0,0)" d="M 16917,10279 L 11494,8720"/>
       </g>
      </g>
      <g class="com.sun.star.drawing.ConnectorShape">
       <g id="id74">
        <rect class="BoundingBox" stroke="none" fill="none" x="11493" y="8719" width="8599" height="1538"/>
        <path fill="none" stroke="rgb(0,0,0)" d="M 20090,10255 L 11494,8720"/>
       </g>
      </g>
      <g class="com.sun.star.drawing.ConnectorShape">
       <g id="id75">
        <rect class="BoundingBox" stroke="none" fill="none" x="11493" y="5492" width="2221" height="1610"/>
        <path fill="none" stroke="rgb(0,0,0)" d="M 11494,7100 L 13712,5493"/>
       </g>
      </g>
      <g class="Group">
       <g class="com.sun.star.drawing.CustomShape">
        <g id="id76">
         <rect class="BoundingBox" stroke="none" fill="none" x="15117" y="7166" width="1441" height="1417"/>
         <path fill="rgb(230,82,44)" stroke="none" d="M 15837,7167 C 15969,7167 16082,7197 16197,7262 16311,7327 16394,7408 16460,7521 16526,7633 16557,7744 16557,7874 16557,8004 16526,8115 16460,8228 16394,8340 16311,8421 16197,8486 16082,8551 15969,8581 15837,8581 15705,8581 15592,8551 15477,8486 15363,8421 15280,8340 15214,8228 15148,8115 15118,8004 15118,7874 15118,7744 15148,7633 15214,7521 15280,7408 15363,7327 15477,7262 15592,7197 15705,7167 15837,7167 L 15837,7167 Z"/>
         <path fill="none" stroke="rgb(52,101,164)" d="M 15805,7168 C 15816,7167 15826,7167 15837,7167 15855,7167 15873,7168 15890,7169"/>
         <path fill="none" stroke="rgb(52,101,164)" d="M 15924,7172 C 15942,7174 15959,7176 15977,7179"/>
         <path fill="none" stroke="rgb(52,101,164)" d="M 16010,7187 C 16027,7191 16044,7196 16061,7201"/>
         <path fill="none" stroke="rgb(52,101,164)" d="M 16093,7213 C 16110,7219 16126,7226 16142,7233"/>
         <path fill="none" stroke="rgb(52,101,164)" d="M 16173,7249 C 16181,7253 16189,7257 16197,7262 16204,7266 16212,7270 16219,7275"/>
         <path fill="none" stroke="rgb(52,101,164)" d="M 16248,7293 C 16263,7303 16277,7314 16291,7324"/>
         <path fill="none" stroke="rgb(52,101,164)" d="M 16317,7346 C 16331,7358 16344,7370 16356,7383"/>
         <path fill="none" stroke="rgb(52,101,164)" d="M 16379,7408 C 16391,7421 16402,7435 16413,7449"/>
         <path fill="none" stroke="rgb(52,101,164)" d="M 16432,7477 C 16442,7491 16451,7505 16460,7521 16460,7521 16461,7521 16461,7522"/>
         <path fill="none" stroke="rgb(52,101,164)" d="M 16478,7552 C 16486,7568 16494,7583 16501,7599"/>
         <path fill="none" stroke="rgb(52,101,164)" d="M 16514,7631 C 16520,7648 16526,7664 16531,7681"/>
         <path fill="none" stroke="rgb(52,101,164)" d="M 16539,7714 C 16543,7732 16546,7749 16549,7767"/>
         <path fill="none" stroke="rgb(52,101,164)" d="M 16553,7801 C 16555,7818 16556,7836 16556,7854"/>
         <path fill="none" stroke="rgb(52,101,164)" d="M 16556,7888 C 16556,7906 16555,7924 16554,7941"/>
         <path fill="none" stroke="rgb(52,101,164)" d="M 16550,7975 C 16547,7993 16544,8010 16541,8027"/>
         <path fill="none" stroke="rgb(52,101,164)" d="M 16532,8060 C 16528,8077 16522,8094 16516,8111"/>
         <path fill="none" stroke="rgb(52,101,164)" d="M 16503,8143 C 16496,8159 16489,8175 16481,8191"/>
         <path fill="none" stroke="rgb(52,101,164)" d="M 16464,8221 C 16463,8223 16461,8225 16460,8228 16452,8241 16444,8253 16436,8266"/>
         <path fill="none" stroke="rgb(52,101,164)" d="M 16417,8294 C 16406,8308 16395,8322 16383,8335"/>
         <path fill="none" stroke="rgb(52,101,164)" d="M 16360,8361 C 16348,8373 16335,8386 16322,8398"/>
         <path fill="none" stroke="rgb(52,101,164)" d="M 16296,8420 C 16282,8430 16268,8441 16253,8451"/>
         <path fill="none" stroke="rgb(52,101,164)" d="M 16225,8470 C 16216,8475 16206,8481 16197,8486 16191,8490 16185,8493 16179,8496"/>
         <path fill="none" stroke="rgb(52,101,164)" d="M 16148,8512 C 16132,8520 16116,8527 16099,8533"/>
         <path fill="none" stroke="rgb(52,101,164)" d="M 16067,8545 C 16051,8551 16034,8556 16016,8560"/>
         <path fill="none" stroke="rgb(52,101,164)" d="M 15983,8567 C 15966,8571 15948,8574 15931,8576"/>
         <path fill="none" stroke="rgb(52,101,164)" d="M 15897,8579 C 15879,8580 15862,8581 15844,8581"/>
         <path fill="none" stroke="rgb(52,101,164)" d="M 15809,8581 C 15791,8580 15774,8579 15756,8577"/>
         <path fill="none" stroke="rgb(52,101,164)" d="M 15722,8573 C 15705,8570 15687,8567 15670,8563"/>
         <path fill="none" stroke="rgb(52,101,164)" d="M 15637,8554 C 15620,8550 15603,8544 15587,8538"/>
         <path fill="none" stroke="rgb(52,101,164)" d="M 15555,8525 C 15539,8518 15523,8511 15507,8502"/>
         <path fill="none" stroke="rgb(52,101,164)" d="M 15477,8486 C 15461,8477 15446,8468 15431,8458"/>
         <path fill="none" stroke="rgb(52,101,164)" d="M 15403,8439 C 15389,8428 15375,8417 15362,8406"/>
         <path fill="none" stroke="rgb(52,101,164)" d="M 15336,8383 C 15323,8371 15311,8358 15299,8345"/>
         <path fill="none" stroke="rgb(52,101,164)" d="M 15277,8319 C 15266,8306 15255,8291 15245,8277"/>
         <path fill="none" stroke="rgb(52,101,164)" d="M 15226,8248 C 15222,8241 15218,8234 15214,8228 15209,8219 15204,8211 15200,8202"/>
         <path fill="none" stroke="rgb(52,101,164)" d="M 15184,8172 C 15176,8155 15169,8139 15163,8123"/>
         <path fill="none" stroke="rgb(52,101,164)" d="M 15151,8091 C 15145,8074 15141,8057 15136,8040"/>
         <path fill="none" stroke="rgb(52,101,164)" d="M 15129,8006 C 15126,7989 15123,7972 15122,7954"/>
         <path fill="none" stroke="rgb(52,101,164)" d="M 15119,7920 C 15118,7905 15118,7890 15118,7874 15118,7872 15118,7869 15118,7867"/>
         <path fill="none" stroke="rgb(52,101,164)" d="M 15119,7832 C 15120,7814 15121,7797 15123,7779"/>
         <path fill="none" stroke="rgb(52,101,164)" d="M 15128,7746 C 15132,7728 15135,7711 15140,7694"/>
         <path fill="none" stroke="rgb(52,101,164)" d="M 15150,7661 C 15155,7644 15161,7628 15168,7611"/>
         <path fill="none" stroke="rgb(52,101,164)" d="M 15182,7580 C 15190,7564 15198,7549 15207,7533"/>
         <path fill="none" stroke="rgb(52,101,164)" d="M 15224,7503 C 15234,7488 15243,7473 15254,7459"/>
         <path fill="none" stroke="rgb(52,101,164)" d="M 15274,7432 C 15285,7418 15297,7405 15309,7392"/>
         <path fill="none" stroke="rgb(52,101,164)" d="M 15333,7368 C 15346,7355 15359,7344 15373,7333"/>
         <path fill="none" stroke="rgb(52,101,164)" d="M 15400,7312 C 15414,7301 15429,7291 15444,7282"/>
         <path fill="none" stroke="rgb(52,101,164)" d="M 15473,7264 C 15475,7263 15476,7263 15477,7262 15492,7254 15506,7246 15520,7239"/>
         <path fill="none" stroke="rgb(52,101,164)" d="M 15551,7225 C 15568,7217 15584,7211 15601,7205"/>
         <path fill="none" stroke="rgb(52,101,164)" d="M 15633,7195 C 15650,7190 15667,7186 15685,7182"/>
         <path fill="none" stroke="rgb(52,101,164)" d="M 15718,7176 C 15736,7173 15753,7171 15771,7170"/>
        </g>
       </g>
       <g class="Graphic">
        <g id="id77">
         <rect class="BoundingBox" stroke="none" fill="none" x="15088" y="7080" width="1613" height="1621"/>
         <path fill="rgb(238,238,238)" stroke="none" d="M 15880,7096 C 15447,7096 15095,7454 15095,7895 15095,8336 15447,8693 15880,8693 16314,8693 16665,8336 16665,7895 16665,7454 16314,7096 15880,7096 L 15880,7096 Z M 15880,8590 C 15757,8590 15657,8507 15657,8403 L 16104,8403 C 16104,8507 16004,8590 15880,8590 L 15880,8590 Z M 16249,8341 L 15511,8341 15511,8205 16249,8205 16249,8341 16249,8341 Z M 16247,8135 L 15513,8135 C 15511,8132 15508,8130 15506,8127 15430,8033 15413,7985 15395,7935 15395,7934 15487,7954 15552,7969 15552,7969 15586,7977 15635,7986 15588,7930 15560,7859 15560,7786 15560,7626 15680,7486 15637,7373 15679,7376 15725,7464 15728,7601 15773,7537 15791,7422 15791,7351 15791,7277 15839,7192 15887,7189 15844,7260 15898,7321 15945,7472 15963,7529 15961,7625 15974,7685 15979,7559 16000,7376 16079,7312 16044,7392 16084,7492 16111,7540 16155,7618 16182,7676 16182,7787 16182,7862 16155,7932 16109,7987 16161,7977 16197,7968 16197,7968 L 16365,7934 C 16365,7934 16341,8037 16247,8135 L 16247,8135 Z"/>
        </g>
       </g>
      </g>
      <g class="com.sun.star.drawing.ConnectorShape">
       <g id="id78">
        <rect class="BoundingBox" stroke="none" fill="none" x="7309" y="8699" width="8587" height="1582"/>
        <path fill="none" stroke="rgb(0,0,0)" d="M 7310,10279 L 15894,8700"/>
       </g>
      </g>
      <g class="com.sun.star.drawing.ConnectorShape">
       <g id="id79">
        <rect class="BoundingBox" stroke="none" fill="none" x="10526" y="8699" width="5370" height="1582"/>
        <path fill="none" stroke="rgb(0,0,0)" d="M 10527,10279 L 15894,8700"/>
       </g>
      </g>
      <g class="com.sun.star.drawing.ConnectorShape">
       <g id="id80">
        <rect class="BoundingBox" stroke="none" fill="none" x="13721" y="8699" width="2175" height="1582"/>
        <path fill="none" stroke="rgb(0,0,0)" d="M 13722,10279 L 15894,8700"/>
       </g>
      </g>
      <g class="com.sun.star.drawing.ConnectorShape">
       <g id="id81">
        <rect class="BoundingBox" stroke="none" fill="none" x="15893" y="8699" width="1026" height="1582"/>
        <path fill="none" stroke="rgb(0,0,0)" d="M 16917,10279 L 15894,8700"/>
       </g>
      </g>
      <g class="com.sun.star.drawing.ConnectorShape">
       <g id="id82">
        <rect class="BoundingBox" stroke="none" fill="none" x="15893" y="8699" width="4199" height="1558"/>
        <path fill="none" stroke="rgb(0,0,0)" d="M 20090,10255 L 15894,8700"/>
       </g>
      </g>
      <g class="com.sun.star.drawing.ConnectorShape">
       <g id="id83">
        <rect class="BoundingBox" stroke="none" fill="none" x="13711" y="5492" width="2185" height="1590"/>
        <path fill="none" stroke="rgb(0,0,0)" d="M 15894,7080 L 13712,5493"/>
       </g>
      </g>
     </g>
    </g>
   </g>
  </g>
 </g>
</svg>