<?xml version="1.0" encoding="UTF-8"?>
<!DOCTYPE svg PUBLIC "-//W3C//DTD SVG 1.1//EN" "http://www.w3.org/Graphics/SVG/1.1/DTD/svg11.dtd">
<svg version="1.2" width="280mm" height="157.5mm" viewBox="0 0 28000 15750" preserveAspectRatio="xMidYMid" fill-rule="evenodd" stroke-width="28.222" stroke-linejoin="round" xmlns="http://www.w3.org/2000/svg" xmlns:ooo="http://xml.openoffice.org/svg/export" xmlns:xlink="http://www.w3.org/1999/xlink" xmlns:presentation="http://sun.com/xmlns/staroffice/presentation" xmlns:smil="http://www.w3.org/2001/SMIL20/" xmlns:anim="urn:oasis:names:tc:opendocument:xmlns:animation:1.0" xml:space="preserve">
 <defs class="ClipPathGroup">
  <clipPath id="presentation_clip_path" clipPathUnits="userSpaceOnUse">
   <rect x="0" y="0" width="28000" height="15750"/>
  </clipPath>
  <clipPath id="presentation_clip_path_shrink" clipPathUnits="userSpaceOnUse">
   <rect x="28" y="15" width="27944" height="15719"/>
  </clipPath>
 </defs>
 <defs class="TextShapeIndex">
  <g ooo:slide="id1" ooo:id-list="id3 id4 id5 id6 id7 id8 id9 id10 id11 id12 id13 id14 id15 id16 id17 id18 id19 id20 id21 id22 id23 id24 id25 id26 id27 id28 id29 id30 id31 id32 id33 id34 id35 id36 id37 id38 id39 id40 id41 id42 id43 id44 id45 id46 id47 id48 id49 id50 id51 id52 id53 id54 id55 id56 id57 id58 id59 id60 id61 id62 id63 id64 id65 id66 id67 id68 id69 id70 id71 id72 id73 id74 id75 id76 id77 id78 id79 id80 id81 id82 id83 id84 id85 id86 id87 id88 id89"/>
 </defs>
 <defs class="EmbeddedBulletChars">
  <g id="bullet-char-template-57356" transform="scale(0.00048828125,-0.00048828125)">
   <path d="M 580,1141 L 1163,571 580,0 -4,571 580,1141 Z"/>
  </g>
  <g id="bullet-char-template-57354" transform="scale(0.00048828125,-0.00048828125)">
   <path d="M 8,1128 L 1137,1128 1137,0 8,0 8,1128 Z"/>
  </g>
  <g id="bullet-char-template-10146" transform="scale(0.00048828125,-0.00048828125)">
   <path d="M 174,0 L 602,739 174,1481 1456,739 174,0 Z M 1358,739 L 309,1346 659,739 1358,739 Z"/>
  </g>
  <g id="bullet-char-template-10132" transform="scale(0.00048828125,-0.00048828125)">
   <path d="M 2015,739 L 1276,0 717,0 1260,543 174,543 174,936 1260,936 717,1481 1274,1481 2015,739 Z"/>
  </g>
  <g id="bullet-char-template-10007" transform="scale(0.00048828125,-0.00048828125)">
   <path d="M 0,-2 C -7,14 -16,27 -25,37 L 356,567 C 262,823 215,952 215,954 215,979 228,992 255,992 264,992 276,990 289,987 310,991 331,999 354,1012 L 381,999 492,748 772,1049 836,1024 860,1049 C 881,1039 901,1025 922,1006 886,937 835,863 770,784 769,783 710,716 594,584 L 774,223 C 774,196 753,168 711,139 L 727,119 C 717,90 699,76 672,76 641,76 570,178 457,381 L 164,-76 C 142,-110 111,-127 72,-127 30,-127 9,-110 8,-76 1,-67 -2,-52 -2,-32 -2,-23 -1,-13 0,-2 Z"/>
  </g>
  <g id="bullet-char-template-10004" transform="scale(0.00048828125,-0.00048828125)">
   <path d="M 285,-33 C 182,-33 111,30 74,156 52,228 41,333 41,471 41,549 55,616 82,672 116,743 169,778 240,778 293,778 328,747 346,684 L 369,508 C 377,444 397,411 428,410 L 1163,1116 C 1174,1127 1196,1133 1229,1133 1271,1133 1292,1118 1292,1087 L 1292,965 C 1292,929 1282,901 1262,881 L 442,47 C 390,-6 338,-33 285,-33 Z"/>
  </g>
  <g id="bullet-char-template-9679" transform="scale(0.00048828125,-0.00048828125)">
   <path d="M 813,0 C 632,0 489,54 383,161 276,268 223,411 223,592 223,773 276,916 383,1023 489,1130 632,1184 813,1184 992,1184 1136,1130 1245,1023 1353,916 1407,772 1407,592 1407,412 1353,268 1245,161 1136,54 992,0 813,0 Z"/>
  </g>
  <g id="bullet-char-template-8226" transform="scale(0.00048828125,-0.00048828125)">
   <path d="M 346,457 C 273,457 209,483 155,535 101,586 74,649 74,723 74,796 101,859 155,911 209,963 273,989 346,989 419,989 480,963 531,910 582,859 608,796 608,723 608,648 583,586 532,535 482,483 420,457 346,457 Z"/>
  </g>
  <g id="bullet-char-template-8211" transform="scale(0.00048828125,-0.00048828125)">
   <path d="M -4,459 L 1135,459 1135,606 -4,606 -4,459 Z"/>
  </g>
  <g id="bullet-char-template-61548" transform="scale(0.00048828125,-0.00048828125)">
   <path d="M 173,740 C 173,903 231,1043 346,1159 462,1274 601,1332 765,1332 928,1332 1067,1274 1183,1159 1299,1043 1357,903 1357,740 1357,577 1299,437 1183,322 1067,206 928,148 765,148 601,148 462,206 346,322 231,437 173,577 173,740 Z"/>
  </g>
 </defs>
 <defs class="TextEmbeddedBitmaps"/>
 <g>
  <g id="id2" class="Master_Slide">
   <g id="bg-id2" class="Background"/>
   <g id="bo-id2" class="BackgroundObjects"/>
  </g>
 </g>
 <g class="SlideGroup">
  <g>
   <g id="container-id1">
    <g id="id1" class="Slide" clip-path="url(#presentation_clip_path)">
     <g class="Page">
      <g class="com.sun.star.drawing.ConnectorShape">
       <g id="id3">
        <rect class="BoundingBox" stroke="none" fill="none" x="10526" y="5719" width="970" height="4562"/>
        <path fill="none" stroke="rgb(0,0,0)" d="M 10527,10279 L 11494,5720"/>
       </g>
      </g>
      <g class="Group">
       <g class="com.sun.star.drawing.CustomShape">
        <g id="id4">
         <rect class="BoundingBox" stroke="none" fill="none" x="10717" y="7186" width="1441" height="1417"/>
         <path fill="rgb(230,82,44)" stroke="none" d="M 11437,7187 C 11569,7187 11682,7217 11797,7282 11911,7347 11994,7428 12060,7541 12126,7653 12157,7764 12157,7894 12157,8024 12126,8135 12060,8248 11994,8360 11911,8441 11797,8506 11682,8571 11569,8601 11437,8601 11305,8601 11192,8571 11077,8506 10963,8441 10880,8360 10814,8248 10748,8135 10718,8024 10718,7894 10718,7764 10748,7653 10814,7541 10880,7428 10963,7347 11077,7282 11192,7217 11305,7187 11437,7187 L 11437,7187 Z"/>
         <path fill="none" stroke="rgb(52,101,164)" d="M 11405,7188 C 11416,7187 11426,7187 11437,7187 11455,7187 11473,7188 11490,7189"/>
         <path fill="none" stroke="rgb(52,101,164)" d="M 11524,7192 C 11542,7194 11559,7196 11577,7199"/>
         <path fill="none" stroke="rgb(52,101,164)" d="M 11610,7207 C 11627,7211 11644,7216 11661,7221"/>
         <path fill="none" stroke="rgb(52,101,164)" d="M 11693,7233 C 11710,7239 11726,7246 11742,7253"/>
         <path fill="none" stroke="rgb(52,101,164)" d="M 11773,7269 C 11781,7273 11789,7277 11797,7282 11804,7286 11812,7290 11819,7295"/>
         <path fill="none" stroke="rgb(52,101,164)" d="M 11848,7313 C 11863,7323 11877,7334 11891,7344"/>
         <path fill="none" stroke="rgb(52,101,164)" d="M 11917,7366 C 11931,7378 11944,7390 11956,7403"/>
         <path fill="none" stroke="rgb(52,101,164)" d="M 11979,7428 C 11991,7441 12002,7455 12013,7469"/>
         <path fill="none" stroke="rgb(52,101,164)" d="M 12032,7497 C 12042,7511 12051,7525 12060,7541 12060,7541 12061,7541 12061,7542"/>
         <path fill="none" stroke="rgb(52,101,164)" d="M 12078,7572 C 12086,7588 12094,7603 12101,7619"/>
         <path fill="none" stroke="rgb(52,101,164)" d="M 12114,7651 C 12120,7668 12126,7684 12131,7701"/>
         <path fill="none" stroke="rgb(52,101,164)" d="M 12139,7734 C 12143,7752 12146,7769 12149,7787"/>
         <path fill="none" stroke="rgb(52,101,164)" d="M 12153,7821 C 12155,7838 12156,7856 12156,7874"/>
         <path fill="none" stroke="rgb(52,101,164)" d="M 12156,7908 C 12156,7926 12155,7944 12154,7961"/>
         <path fill="none" stroke="rgb(52,101,164)" d="M 12150,7995 C 12147,8013 12144,8030 12141,8047"/>
         <path fill="none" stroke="rgb(52,101,164)" d="M 12132,8080 C 12128,8097 12122,8114 12116,8131"/>
         <path fill="none" stroke="rgb(52,101,164)" d="M 12103,8163 C 12096,8179 12089,8195 12081,8211"/>
         <path fill="none" stroke="rgb(52,101,164)" d="M 12064,8241 C 12063,8243 12061,8245 12060,8248 12052,8261 12044,8273 12036,8286"/>
         <path fill="none" stroke="rgb(52,101,164)" d="M 12017,8314 C 12006,8328 11995,8342 11983,8355"/>
         <path fill="none" stroke="rgb(52,101,164)" d="M 11960,8381 C 11948,8393 11935,8406 11922,8418"/>
         <path fill="none" stroke="rgb(52,101,164)" d="M 11896,8440 C 11882,8450 11868,8461 11853,8471"/>
         <path fill="none" stroke="rgb(52,101,164)" d="M 11825,8490 C 11816,8495 11806,8501 11797,8506 11791,8510 11785,8513 11779,8516"/>
         <path fill="none" stroke="rgb(52,101,164)" d="M 11748,8532 C 11732,8540 11716,8547 11699,8553"/>
         <path fill="none" stroke="rgb(52,101,164)" d="M 11667,8565 C 11651,8571 11634,8576 11616,8580"/>
         <path fill="none" stroke="rgb(52,101,164)" d="M 11583,8587 C 11566,8591 11548,8594 11531,8596"/>
         <path fill="none" stroke="rgb(52,101,164)" d="M 11497,8599 C 11479,8600 11462,8601 11444,8601"/>
         <path fill="none" stroke="rgb(52,101,164)" d="M 11409,8601 C 11391,8600 11374,8599 11356,8597"/>
         <path fill="none" stroke="rgb(52,101,164)" d="M 11322,8593 C 11305,8590 11287,8587 11270,8583"/>
         <path fill="none" stroke="rgb(52,101,164)" d="M 11237,8574 C 11220,8570 11203,8564 11187,8558"/>
         <path fill="none" stroke="rgb(52,101,164)" d="M 11155,8545 C 11139,8538 11123,8531 11107,8522"/>
         <path fill="none" stroke="rgb(52,101,164)" d="M 11077,8506 C 11061,8497 11046,8488 11031,8478"/>
         <path fill="none" stroke="rgb(52,101,164)" d="M 11003,8459 C 10989,8448 10975,8437 10962,8426"/>
         <path fill="none" stroke="rgb(52,101,164)" d="M 10936,8403 C 10923,8391 10911,8378 10899,8365"/>
         <path fill="none" stroke="rgb(52,101,164)" d="M 10877,8339 C 10866,8326 10855,8311 10845,8297"/>
         <path fill="none" stroke="rgb(52,101,164)" d="M 10826,8268 C 10822,8261 10818,8254 10814,8248 10809,8239 10804,8231 10800,8222"/>
         <path fill="none" stroke="rgb(52,101,164)" d="M 10784,8192 C 10776,8175 10769,8159 10763,8143"/>
         <path fill="none" stroke="rgb(52,101,164)" d="M 10751,8111 C 10745,8094 10741,8077 10736,8060"/>
         <path fill="none" stroke="rgb(52,101,164)" d="M 10729,8026 C 10726,8009 10723,7992 10722,7974"/>
         <path fill="none" stroke="rgb(52,101,164)" d="M 10719,7940 C 10718,7925 10718,7910 10718,7894 10718,7892 10718,7889 10718,7887"/>
         <path fill="none" stroke="rgb(52,101,164)" d="M 10719,7852 C 10720,7834 10721,7817 10723,7799"/>
         <path fill="none" stroke="rgb(52,101,164)" d="M 10728,7766 C 10732,7748 10735,7731 10740,7714"/>
         <path fill="none" stroke="rgb(52,101,164)" d="M 10750,7681 C 10755,7664 10761,7648 10768,7631"/>
         <path fill="none" stroke="rgb(52,101,164)" d="M 10782,7600 C 10790,7584 10798,7569 10807,7553"/>
         <path fill="none" stroke="rgb(52,101,164)" d="M 10824,7523 C 10834,7508 10843,7493 10854,7479"/>
         <path fill="none" stroke="rgb(52,101,164)" d="M 10874,7452 C 10885,7438 10897,7425 10909,7412"/>
         <path fill="none" stroke="rgb(52,101,164)" d="M 10933,7388 C 10946,7375 10959,7364 10973,7353"/>
         <path fill="none" stroke="rgb(52,101,164)" d="M 11000,7332 C 11014,7321 11029,7311 11044,7302"/>
         <path fill="none" stroke="rgb(52,101,164)" d="M 11073,7284 C 11075,7283 11076,7283 11077,7282 11092,7274 11106,7266 11120,7259"/>
         <path fill="none" stroke="rgb(52,101,164)" d="M 11151,7245 C 11168,7237 11184,7231 11201,7225"/>
         <path fill="none" stroke="rgb(52,101,164)" d="M 11233,7215 C 11250,7210 11267,7206 11285,7202"/>
         <path fill="none" stroke="rgb(52,101,164)" d="M 11318,7196 C 11336,7193 11353,7191 11371,7190"/>
        </g>
       </g>
       <g class="Graphic">
        <g id="id5">
         <rect class="BoundingBox" stroke="none" fill="none" x="10688" y="7100" width="1613" height="1621"/>
         <path fill="rgb(238,238,238)" stroke="none" d="M 11480,7116 C 11047,7116 10695,7474 10695,7915 10695,8356 11047,8713 11480,8713 11914,8713 12265,8356 12265,7915 12265,7474 11914,7116 11480,7116 L 11480,7116 Z M 11480,8610 C 11357,8610 11257,8527 11257,8423 L 11704,8423 C 11704,8527 11604,8610 11480,8610 L 11480,8610 Z M 11849,8361 L 11111,8361 11111,8225 11849,8225 11849,8361 11849,8361 Z M 11847,8155 L 11113,8155 C 11111,8152 11108,8150 11106,8147 11030,8053 11013,8005 10995,7955 10995,7954 11087,7974 11152,7989 11152,7989 11186,7997 11235,8006 11188,7950 11160,7879 11160,7806 11160,7646 11280,7506 11237,7393 11279,7396 11325,7484 11328,7621 11373,7557 11391,7442 11391,7371 11391,7297 11439,7212 11487,7209 11444,7280 11498,7341 11545,7492 11563,7549 11561,7645 11574,7705 11579,7579 11600,7396 11679,7332 11644,7412 11684,7512 11711,7560 11755,7638 11782,7696 11782,7807 11782,7882 11755,7952 11709,8007 11761,7997 11797,7988 11797,7988 L 11965,7954 C 11965,7954 11941,8057 11847,8155 L 11847,8155 Z"/>
        </g>
       </g>
      </g>
      <g class="Group">
       <g class="com.sun.star.drawing.ClosedBezierShape">
        <g id="id6">
         <rect class="BoundingBox" stroke="none" fill="none" x="6500" y="10278" width="1621" height="1619"/>
         <path fill="rgb(237,237,238)" stroke="none" d="M 8120,11087 C 8120,11534 7757,11896 7308,11896 6861,11896 6500,11534 6500,11087 6500,10641 6861,10279 7308,10279 7757,10279 8120,10641 8120,11087 Z"/>
        </g>
       </g>
       <g class="com.sun.star.drawing.ClosedBezierShape">
        <g id="id7">
         <rect class="BoundingBox" stroke="none" fill="none" x="6940" y="10533" width="739" height="1030"/>
         <path fill="rgb(1,1,1)" stroke="none" d="M 6978,10607 C 6978,10588 6994,10570 7014,10570 L 7604,10570 C 7625,10570 7641,10588 7641,10607 L 7641,11488 C 7641,11507 7625,11524 7604,11524 L 7014,11524 C 6994,11524 6978,11507 6978,11488 L 6978,10607 Z M 7014,11561 L 7604,11561 C 7645,11561 7677,11528 7677,11488 L 7677,10607 C 7677,10567 7645,10534 7604,10534 L 7014,10534 C 6974,10534 6941,10567 6941,10607 L 6941,11488 C 6941,11528 6974,11561 7014,11561 Z"/>
        </g>
       </g>
       <g class="com.sun.star.drawing.ClosedBezierShape">
        <g id="id8">
         <rect class="BoundingBox" stroke="none" fill="none" x="7115" y="10726" width="382" height="41"/>
         <path fill="rgb(1,1,1)" stroke="none" d="M 7134,10765 L 7478,10765 C 7487,10765 7495,10757 7495,10744 7495,10735 7487,10727 7478,10727 L 7134,10727 C 7123,10727 7115,10735 7115,10744 7115,10757 7123,10765 7134,10765 Z"/>
        </g>
       </g>
       <g class="com.sun.star.drawing.ClosedBezierShape">
        <g id="id9">
         <rect class="BoundingBox" stroke="none" fill="none" x="7423" y="11602" width="134" height="40"/>
         <path fill="rgb(1,1,1)" stroke="none" d="M 7556,11622 C 7556,11612 7548,11602 7537,11602 L 7441,11602 C 7431,11602 7423,11612 7423,11622 7423,11633 7431,11641 7441,11641 L 7537,11641 C 7548,11641 7556,11633 7556,11622 Z"/>
        </g>
       </g>
       <g class="com.sun.star.drawing.ClosedBezierShape">
        <g id="id10">
         <rect class="BoundingBox" stroke="none" fill="none" x="7067" y="11602" width="134" height="40"/>
         <path fill="rgb(1,1,1)" stroke="none" d="M 7086,11641 L 7182,11641 C 7192,11641 7200,11633 7200,11622 7200,11612 7192,11602 7182,11602 L 7086,11602 C 7075,11602 7067,11612 7067,11622 7067,11633 7075,11641 7086,11641 Z"/>
        </g>
       </g>
       <g class="com.sun.star.drawing.ClosedBezierShape">
        <g id="id11">
         <rect class="BoundingBox" stroke="none" fill="none" x="7115" y="10847" width="382" height="41"/>
         <path fill="rgb(1,1,1)" stroke="none" d="M 7134,10886 L 7478,10886 C 7487,10886 7495,10878 7495,10869 7495,10856 7487,10848 7478,10848 L 7134,10848 C 7123,10848 7115,10856 7115,10869 7115,10878 7123,10886 7134,10886 Z"/>
        </g>
       </g>
       <g class="com.sun.star.drawing.ClosedBezierShape">
        <g id="id12">
         <rect class="BoundingBox" stroke="none" fill="none" x="7115" y="10970" width="382" height="41"/>
         <path fill="rgb(1,1,1)" stroke="none" d="M 7134,11009 L 7478,11009 C 7487,11009 7495,11000 7495,10988 7495,10979 7487,10971 7478,10971 L 7134,10971 C 7123,10971 7115,10979 7115,10988 7115,11000 7123,11009 7134,11009 Z"/>
        </g>
       </g>
      </g>
      <g class="Group">
       <g class="com.sun.star.drawing.ClosedBezierShape">
        <g id="id13">
         <rect class="BoundingBox" stroke="none" fill="none" x="9717" y="10278" width="1622" height="1619"/>
         <path fill="rgb(237,237,238)" stroke="none" d="M 11337,11087 C 11337,11534 10975,11896 10526,11896 10078,11896 9717,11534 9717,11087 9717,10641 10078,10279 10526,10279 10975,10279 11337,10641 11337,11087 Z"/>
        </g>
       </g>
       <g class="com.sun.star.drawing.ClosedBezierShape">
        <g id="id14">
         <rect class="BoundingBox" stroke="none" fill="none" x="10158" y="10533" width="738" height="1030"/>
         <path fill="rgb(1,1,1)" stroke="none" d="M 10195,10607 C 10195,10588 10211,10570 10232,10570 L 10821,10570 C 10842,10570 10858,10588 10858,10607 L 10858,11488 C 10858,11507 10842,11524 10821,11524 L 10232,11524 C 10211,11524 10195,11507 10195,11488 L 10195,10607 Z M 10232,11561 L 10821,11561 C 10863,11561 10895,11528 10895,11488 L 10895,10607 C 10895,10567 10863,10534 10821,10534 L 10232,10534 C 10192,10534 10158,10567 10158,10607 L 10158,11488 C 10158,11528 10192,11561 10232,11561 Z"/>
        </g>
       </g>
       <g class="com.sun.star.drawing.ClosedBezierShape">
        <g id="id15">
         <rect class="BoundingBox" stroke="none" fill="none" x="10332" y="10726" width="382" height="41"/>
         <path fill="rgb(1,1,1)" stroke="none" d="M 10352,10765 L 10695,10765 C 10705,10765 10713,10757 10713,10744 10713,10735 10705,10727 10695,10727 L 10352,10727 C 10340,10727 10332,10735 10332,10744 10332,10757 10340,10765 10352,10765 Z"/>
        </g>
       </g>
       <g class="com.sun.star.drawing.ClosedBezierShape">
        <g id="id16">
         <rect class="BoundingBox" stroke="none" fill="none" x="10640" y="11602" width="135" height="40"/>
         <path fill="rgb(1,1,1)" stroke="none" d="M 10773,11622 C 10773,11612 10765,11602 10754,11602 L 10658,11602 C 10649,11602 10641,11612 10641,11622 10641,11633 10649,11641 10658,11641 L 10754,11641 C 10765,11641 10773,11633 10773,11622 Z"/>
        </g>
       </g>
       <g class="com.sun.star.drawing.ClosedBezierShape">
        <g id="id17">
         <rect class="BoundingBox" stroke="none" fill="none" x="10284" y="11602" width="135" height="40"/>
         <path fill="rgb(1,1,1)" stroke="none" d="M 10304,11641 L 10400,11641 C 10409,11641 10417,11633 10417,11622 10417,11612 10409,11602 10400,11602 L 10304,11602 C 10293,11602 10285,11612 10285,11622 10285,11633 10293,11641 10304,11641 Z"/>
        </g>
       </g>
       <g class="com.sun.star.drawing.ClosedBezierShape">
        <g id="id18">
         <rect class="BoundingBox" stroke="none" fill="none" x="10332" y="10847" width="382" height="41"/>
         <path fill="rgb(1,1,1)" stroke="none" d="M 10352,10886 L 10695,10886 C 10705,10886 10713,10878 10713,10869 10713,10856 10705,10848 10695,10848 L 10352,10848 C 10340,10848 10332,10856 10332,10869 10332,10878 10340,10886 10352,10886 Z"/>
        </g>
       </g>
       <g class="com.sun.star.drawing.ClosedBezierShape">
        <g id="id19">
         <rect class="BoundingBox" stroke="none" fill="none" x="10332" y="10970" width="382" height="41"/>
         <path fill="rgb(1,1,1)" stroke="none" d="M 10352,11009 L 10695,11009 C 10705,11009 10713,11000 10713,10988 10713,10979 10705,10971 10695,10971 L 10352,10971 C 10340,10971 10332,10979 10332,10988 10332,11000 10340,11009 10352,11009 Z"/>
        </g>
       </g>
      </g>
      <g class="Group">
       <g class="com.sun.star.drawing.ClosedBezierShape">
        <g id="id20">
         <rect class="BoundingBox" stroke="none" fill="none" x="12912" y="10278" width="1622" height="1619"/>
         <path fill="rgb(237,237,238)" stroke="none" d="M 14532,11087 C 14532,11534 14170,11896 13721,11896 13273,11896 12912,11534 12912,11087 12912,10641 13273,10279 13721,10279 14170,10279 14532,10641 14532,11087 Z"/>
        </g>
       </g>
       <g class="com.sun.star.drawing.ClosedBezierShape">
        <g id="id21">
         <rect class="BoundingBox" stroke="none" fill="none" x="13353" y="10533" width="738" height="1030"/>
         <path fill="rgb(1,1,1)" stroke="none" d="M 13390,10607 C 13390,10588 13406,10570 13427,10570 L 14016,10570 C 14037,10570 14053,10588 14053,10607 L 14053,11488 C 14053,11507 14037,11524 14016,11524 L 13427,11524 C 13406,11524 13390,11507 13390,11488 L 13390,10607 Z M 13427,11561 L 14016,11561 C 14058,11561 14090,11528 14090,11488 L 14090,10607 C 14090,10567 14058,10534 14016,10534 L 13427,10534 C 13387,10534 13353,10567 13353,10607 L 13353,11488 C 13353,11528 13387,11561 13427,11561 Z"/>
        </g>
       </g>
       <g class="com.sun.star.drawing.ClosedBezierShape">
        <g id="id22">
         <rect class="BoundingBox" stroke="none" fill="none" x="13527" y="10726" width="382" height="41"/>
         <path fill="rgb(1,1,1)" stroke="none" d="M 13547,10765 L 13890,10765 C 13900,10765 13908,10757 13908,10744 13908,10735 13900,10727 13890,10727 L 13547,10727 C 13535,10727 13527,10735 13527,10744 13527,10757 13535,10765 13547,10765 Z"/>
        </g>
       </g>
       <g class="com.sun.star.drawing.ClosedBezierShape">
        <g id="id23">
         <rect class="BoundingBox" stroke="none" fill="none" x="13835" y="11602" width="135" height="40"/>
         <path fill="rgb(1,1,1)" stroke="none" d="M 13968,11622 C 13968,11612 13960,11602 13949,11602 L 13853,11602 C 13844,11602 13836,11612 13836,11622 13836,11633 13844,11641 13853,11641 L 13949,11641 C 13960,11641 13968,11633 13968,11622 Z"/>
        </g>
       </g>
       <g class="com.sun.star.drawing.ClosedBezierShape">
        <g id="id24">
         <rect class="BoundingBox" stroke="none" fill="none" x="13479" y="11602" width="135" height="40"/>
         <path fill="rgb(1,1,1)" stroke="none" d="M 13499,11641 L 13595,11641 C 13604,11641 13612,11633 13612,11622 13612,11612 13604,11602 13595,11602 L 13499,11602 C 13488,11602 13480,11612 13480,11622 13480,11633 13488,11641 13499,11641 Z"/>
        </g>
       </g>
       <g class="com.sun.star.drawing.ClosedBezierShape">
        <g id="id25">
         <rect class="BoundingBox" stroke="none" fill="none" x="13527" y="10847" width="382" height="41"/>
         <path fill="rgb(1,1,1)" stroke="none" d="M 13547,10886 L 13890,10886 C 13900,10886 13908,10878 13908,10869 13908,10856 13900,10848 13890,10848 L 13547,10848 C 13535,10848 13527,10856 13527,10869 13527,10878 13535,10886 13547,10886 Z"/>
        </g>
       </g>
       <g class="com.sun.star.drawing.ClosedBezierShape">
        <g id="id26">
         <rect class="BoundingBox" stroke="none" fill="none" x="13527" y="10970" width="382" height="41"/>
         <path fill="rgb(1,1,1)" stroke="none" d="M 13547,11009 L 13890,11009 C 13900,11009 13908,11000 13908,10988 13908,10979 13900,10971 13890,10971 L 13547,10971 C 13535,10971 13527,10979 13527,10988 13527,11000 13535,11009 13547,11009 Z"/>
        </g>
       </g>
      </g>
      <g class="Group">
       <g class="com.sun.star.drawing.ClosedBezierShape">
        <g id="id27">
         <rect class="BoundingBox" stroke="none" fill="none" x="16107" y="10278" width="1622" height="1619"/>
         <path fill="rgb(237,237,238)" stroke="none" d="M 17727,11087 C 17727,11534 17365,11896 16916,11896 16468,11896 16107,11534 16107,11087 16107,10641 16468,10279 16916,10279 17365,10279 17727,10641 17727,11087 Z"/>
        </g>
       </g>
       <g class="com.sun.star.drawing.ClosedBezierShape">
        <g id="id28">
         <rect class="BoundingBox" stroke="none" fill="none" x="16548" y="10533" width="738" height="1030"/>
         <path fill="rgb(1,1,1)" stroke="none" d="M 16585,10607 C 16585,10588 16601,10570 16622,10570 L 17211,10570 C 17232,10570 17248,10588 17248,10607 L 17248,11488 C 17248,11507 17232,11524 17211,11524 L 16622,11524 C 16601,11524 16585,11507 16585,11488 L 16585,10607 Z M 16622,11561 L 17211,11561 C 17253,11561 17285,11528 17285,11488 L 17285,10607 C 17285,10567 17253,10534 17211,10534 L 16622,10534 C 16582,10534 16548,10567 16548,10607 L 16548,11488 C 16548,11528 16582,11561 16622,11561 Z"/>
        </g>
       </g>
       <g class="com.sun.star.drawing.ClosedBezierShape">
        <g id="id29">
         <rect class="BoundingBox" stroke="none" fill="none" x="16722" y="10726" width="382" height="41"/>
         <path fill="rgb(1,1,1)" stroke="none" d="M 16742,10765 L 17085,10765 C 17095,10765 17103,10757 17103,10744 17103,10735 17095,10727 17085,10727 L 16742,10727 C 16730,10727 16722,10735 16722,10744 16722,10757 16730,10765 16742,10765 Z"/>
        </g>
       </g>
       <g class="com.sun.star.drawing.ClosedBezierShape">
        <g id="id30">
         <rect class="BoundingBox" stroke="none" fill="none" x="17030" y="11602" width="135" height="40"/>
         <path fill="rgb(1,1,1)" stroke="none" d="M 17163,11622 C 17163,11612 17155,11602 17144,11602 L 17048,11602 C 17039,11602 17031,11612 17031,11622 17031,11633 17039,11641 17048,11641 L 17144,11641 C 17155,11641 17163,11633 17163,11622 Z"/>
        </g>
       </g>
       <g class="com.sun.star.drawing.ClosedBezierShape">
        <g id="id31">
         <rect class="BoundingBox" stroke="none" fill="none" x="16674" y="11602" width="135" height="40"/>
         <path fill="rgb(1,1,1)" stroke="none" d="M 16694,11641 L 16790,11641 C 16799,11641 16807,11633 16807,11622 16807,11612 16799,11602 16790,11602 L 16694,11602 C 16683,11602 16675,11612 16675,11622 16675,11633 16683,11641 16694,11641 Z"/>
        </g>
       </g>
       <g class="com.sun.star.drawing.ClosedBezierShape">
        <g id="id32">
         <rect class="BoundingBox" stroke="none" fill="none" x="16722" y="10847" width="382" height="41"/>
         <path fill="rgb(1,1,1)" stroke="none" d="M 16742,10886 L 17085,10886 C 17095,10886 17103,10878 17103,10869 17103,10856 17095,10848 17085,10848 L 16742,10848 C 16730,10848 16722,10856 16722,10869 16722,10878 16730,10886 16742,10886 Z"/>
        </g>
       </g>
       <g class="com.sun.star.drawing.ClosedBezierShape">
        <g id="id33">
         <rect class="BoundingBox" stroke="none" fill="none" x="16722" y="10970" width="382" height="41"/>
         <path fill="rgb(1,1,1)" stroke="none" d="M 16742,11009 L 17085,11009 C 17095,11009 17103,11000 17103,10988 17103,10979 17095,10971 17085,10971 L 16742,10971 C 16730,10971 16722,10979 16722,10988 16722,11000 16730,11009 16742,11009 Z"/>
        </g>
       </g>
      </g>
      <g class="Group">
       <g class="com.sun.star.drawing.ClosedBezierShape">
        <g id="id34">
         <rect class="BoundingBox" stroke="none" fill="none" x="19280" y="10254" width="1621" height="1620"/>
         <path fill="rgb(237,237,238)" stroke="none" d="M 20900,11063 C 20900,11510 20537,11872 20088,11872 19641,11872 19280,11510 19280,11063 19280,10617 19641,10255 20088,10255 20537,10255 20900,10617 20900,11063 Z"/>
        </g>
       </g>
       <g class="com.sun.star.drawing.ClosedBezierShape">
        <g id="id35">
         <rect class="BoundingBox" stroke="none" fill="none" x="19721" y="10509" width="738" height="1030"/>
         <path fill="rgb(1,1,1)" stroke="none" d="M 19758,10583 C 19758,10564 19774,10547 19795,10547 L 20384,10547 C 20405,10547 20421,10564 20421,10583 L 20421,11464 C 20421,11483 20405,11500 20384,11500 L 19795,11500 C 19774,11500 19758,11483 19758,11464 L 19758,10583 Z M 19795,11537 L 20384,11537 C 20426,11537 20457,11504 20457,11464 L 20457,10583 C 20457,10543 20426,10510 20384,10510 L 19795,10510 C 19755,10510 19721,10543 19721,10583 L 19721,11464 C 19721,11504 19755,11537 19795,11537 Z"/>
        </g>
       </g>
       <g class="com.sun.star.drawing.ClosedBezierShape">
        <g id="id36">
         <rect class="BoundingBox" stroke="none" fill="none" x="19895" y="10702" width="382" height="41"/>
         <path fill="rgb(1,1,1)" stroke="none" d="M 19914,10741 L 20258,10741 C 20267,10741 20275,10733 20275,10720 20275,10711 20267,10703 20258,10703 L 19914,10703 C 19903,10703 19895,10711 19895,10720 19895,10733 19903,10741 19914,10741 Z"/>
        </g>
       </g>
       <g class="com.sun.star.drawing.ClosedBezierShape">
        <g id="id37">
         <rect class="BoundingBox" stroke="none" fill="none" x="20203" y="11578" width="135" height="40"/>
         <path fill="rgb(1,1,1)" stroke="none" d="M 20336,11598 C 20336,11588 20328,11579 20317,11579 L 20221,11579 C 20211,11579 20203,11588 20203,11598 20203,11609 20211,11617 20221,11617 L 20317,11617 C 20328,11617 20336,11609 20336,11598 Z"/>
        </g>
       </g>
       <g class="com.sun.star.drawing.ClosedBezierShape">
        <g id="id38">
         <rect class="BoundingBox" stroke="none" fill="none" x="19847" y="11578" width="134" height="40"/>
         <path fill="rgb(1,1,1)" stroke="none" d="M 19866,11617 L 19962,11617 C 19972,11617 19980,11609 19980,11598 19980,11588 19972,11579 19962,11579 L 19866,11579 C 19855,11579 19847,11588 19847,11598 19847,11609 19855,11617 19866,11617 Z"/>
        </g>
       </g>
       <g class="com.sun.star.drawing.ClosedBezierShape">
        <g id="id39">
         <rect class="BoundingBox" stroke="none" fill="none" x="19895" y="10824" width="382" height="40"/>
         <path fill="rgb(1,1,1)" stroke="none" d="M 19914,10862 L 20258,10862 C 20267,10862 20275,10854 20275,10845 20275,10832 20267,10824 20258,10824 L 19914,10824 C 19903,10824 19895,10832 19895,10845 19895,10854 19903,10862 19914,10862 Z"/>
        </g>
       </g>
       <g class="com.sun.star.drawing.ClosedBezierShape">
        <g id="id40">
         <rect class="BoundingBox" stroke="none" fill="none" x="19895" y="10946" width="382" height="41"/>
         <path fill="rgb(1,1,1)" stroke="none" d="M 19914,10985 L 20258,10985 C 20267,10985 20275,10976 20275,10964 20275,10955 20267,10947 20258,10947 L 19914,10947 C 19903,10947 19895,10955 19895,10964 19895,10976 19903,10985 19914,10985 Z"/>
        </g>
       </g>
      </g>
      <g class="Group">
       <g class="com.sun.star.drawing.ClosedBezierShape">
        <g id="id41">
         <rect class="BoundingBox" stroke="none" fill="none" x="13975" y="3472" width="117" height="23"/>
         <path fill="rgb(252,212,8)" stroke="none" d="M 14072,3493 L 14036,3493 C 14020,3489 13999,3483 13976,3473 L 14091,3473 C 14085,3480 14079,3486 14072,3493 Z"/>
        </g>
       </g>
       <g class="com.sun.star.drawing.ClosedBezierShape">
        <g id="id42">
         <rect class="BoundingBox" stroke="none" fill="none" x="13905" y="3431" width="218" height="64"/>
         <path fill="rgb(252,207,9)" stroke="none" d="M 14072,3493 L 14036,3493 C 14004,3485 13952,3468 13906,3431 L 14121,3431 C 14109,3451 14093,3472 14072,3493 Z"/>
        </g>
       </g>
       <g class="com.sun.star.drawing.ClosedBezierShape">
        <g id="id43">
         <rect class="BoundingBox" stroke="none" fill="none" x="13304" y="3389" width="840" height="99"/>
         <path fill="rgb(251,203,10)" stroke="none" d="M 14078,3487 L 14013,3487 C 13969,3473 13908,3445 13865,3390 L 14143,3390 C 14130,3419 14110,3453 14078,3487 Z M 13319,3431 C 13319,3431 13311,3416 13304,3390 L 13535,3390 C 13485,3412 13411,3434 13319,3431 Z"/>
        </g>
       </g>
       <g class="com.sun.star.drawing.ClosedBezierShape">
        <g id="id44">
         <rect class="BoundingBox" stroke="none" fill="none" x="13295" y="3348" width="864" height="99"/>
         <path fill="rgb(251,199,11)" stroke="none" d="M 14112,3445 L 13925,3445 C 13902,3430 13880,3411 13862,3386 L 13853,3386 13844,3386 13841,3386 13835,3386 13798,3386 C 13749,3383 13700,3378 13652,3366 13633,3361 13618,3358 13603,3352 13581,3366 13478,3437 13319,3431 13319,3431 13303,3399 13295,3348 L 14157,3348 C 14150,3375 14137,3409 14112,3445 Z"/>
        </g>
       </g>
       <g class="com.sun.star.drawing.ClosedBezierShape">
        <g id="id45">
         <rect class="BoundingBox" stroke="none" fill="none" x="13291" y="3306" width="874" height="100"/>
         <path fill="rgb(250,195,12)" stroke="none" d="M 14136,3405 L 13877,3405 C 13872,3399 13867,3393 13862,3386 L 13853,3386 13844,3386 13841,3386 13835,3386 13798,3386 C 13749,3383 13700,3378 13652,3366 13633,3361 13618,3358 13603,3352 13591,3360 13554,3385 13497,3405 L 13309,3405 C 13301,3383 13293,3348 13291,3307 L 14164,3307 C 14163,3324 14158,3360 14136,3405 Z"/>
        </g>
       </g>
       <g class="com.sun.star.drawing.ClosedBezierShape">
        <g id="id46">
         <rect class="BoundingBox" stroke="none" fill="none" x="13291" y="3265" width="911" height="100"/>
         <path fill="rgb(250,191,13)" stroke="none" d="M 14161,3293 L 14164,3296 C 14164,3296 14166,3323 14153,3363 L 13640,3363 C 13627,3359 13615,3357 13603,3352 13599,3355 13594,3358 13586,3363 L 13298,3363 C 13292,3336 13289,3303 13293,3265 L 14200,3265 C 14188,3275 14175,3284 14161,3293 Z"/>
        </g>
       </g>
       <g class="com.sun.star.drawing.ClosedBezierShape">
        <g id="id47">
         <rect class="BoundingBox" stroke="none" fill="none" x="13291" y="3223" width="959" height="100"/>
         <path fill="rgb(250,186,14)" stroke="none" d="M 14219,3251 C 14201,3265 14182,3279 14161,3293 L 14164,3296 C 14164,3296 14165,3306 14162,3322 L 13292,3322 C 13290,3293 13291,3259 13300,3224 L 14249,3224 C 14239,3233 14229,3242 14219,3251 Z"/>
        </g>
       </g>
       <g class="com.sun.star.drawing.ClosedBezierShape">
        <g id="id48">
         <rect class="BoundingBox" stroke="none" fill="none" x="13291" y="3182" width="999" height="100"/>
         <path fill="rgb(249,182,16)" stroke="none" d="M 14219,3251 C 14206,3261 14194,3270 14180,3280 L 13292,3280 C 13293,3250 13299,3217 13312,3182 L 14288,3182 C 14267,3206 14244,3230 14219,3251 Z"/>
        </g>
       </g>
       <g class="com.sun.star.drawing.ClosedBezierShape">
        <g id="id49">
         <rect class="BoundingBox" stroke="none" fill="none" x="13273" y="3140" width="1049" height="100"/>
         <path fill="rgb(249,178,17)" stroke="none" d="M 13706,3158 C 13740,3167 13774,3172 13807,3175 L 13831,3175 13835,3175 C 13835,3175 13838,3175 13835,3175 L 13838,3175 13847,3175 13853,3175 13856,3175 13859,3175 C 13877,3172 13892,3172 13908,3169 13938,3164 13969,3155 13999,3144 14002,3143 14005,3142 14008,3141 L 14321,3141 C 14320,3143 14318,3145 14316,3147 14293,3179 14264,3210 14233,3239 L 13297,3239 C 13300,3220 13305,3200 13313,3181 13301,3169 13289,3158 13276,3144 13275,3143 13274,3142 13273,3141 L 13651,3141 C 13669,3147 13687,3153 13706,3158 Z"/>
        </g>
       </g>
       <g class="com.sun.star.drawing.ClosedBezierShape">
        <g id="id50">
         <rect class="BoundingBox" stroke="none" fill="none" x="13239" y="3099" width="1231" height="100"/>
         <path fill="rgb(248,174,18)" stroke="none" d="M 13612,3124 C 13642,3138 13673,3150 13706,3158 13740,3167 13774,3172 13807,3175 L 13831,3175 13835,3175 C 13835,3175 13838,3175 13835,3175 L 13838,3175 13847,3175 13853,3175 13856,3175 13859,3175 C 13877,3172 13892,3172 13908,3169 13938,3164 13969,3155 13999,3144 14028,3133 14055,3118 14080,3099 L 14469,3099 C 14437,3117 14385,3139 14323,3136 14323,3138 14320,3144 14316,3147 14304,3164 14290,3181 14275,3197 L 13307,3197 C 13309,3192 13311,3186 13313,3181 13301,3169 13289,3158 13276,3144 13263,3130 13251,3114 13240,3099 L 13565,3099 C 13580,3108 13596,3117 13612,3124 Z"/>
        </g>
       </g>
       <g class="com.sun.star.drawing.ClosedBezierShape">
        <g id="id51">
         <rect class="BoundingBox" stroke="none" fill="none" x="13211" y="3058" width="1293" height="99"/>
         <path fill="rgb(248,170,19)" stroke="none" d="M 13612,3124 C 13639,3137 13667,3147 13697,3156 L 13287,3156 C 13283,3152 13280,3148 13276,3144 13252,3117 13231,3088 13212,3059 L 13510,3059 C 13540,3084 13574,3107 13612,3124 Z M 13999,3144 C 14047,3125 14091,3095 14125,3059 L 14499,3059 C 14500,3064 14502,3070 14503,3076 14503,3076 14426,3141 14323,3136 14323,3138 14320,3144 14316,3147 14314,3150 14312,3153 14310,3156 L 13965,3156 C 13976,3152 13988,3148 13999,3144 Z"/>
        </g>
       </g>
       <g class="com.sun.star.drawing.ClosedBezierShape">
        <g id="id52">
         <rect class="BoundingBox" stroke="none" fill="none" x="13092" y="3017" width="1412" height="98"/>
         <path fill="rgb(248,165,20)" stroke="none" d="M 13591,3114 L 13251,3114 C 13234,3092 13218,3069 13203,3045 13203,3045 13157,3042 13092,3017 L 13466,3017 C 13502,3055 13544,3089 13591,3114 Z M 14146,3034 C 14150,3029 14154,3023 14159,3017 L 14486,3017 C 14493,3034 14499,3054 14503,3076 14503,3076 14478,3097 14439,3114 L 14058,3114 C 14092,3092 14122,3065 14146,3034 Z"/>
        </g>
       </g>
       <g class="com.sun.star.drawing.ClosedBezierShape">
        <g id="id53">
         <rect class="BoundingBox" stroke="none" fill="none" x="13008" y="2975" width="1495" height="99"/>
         <path fill="rgb(247,161,21)" stroke="none" d="M 13456,3006 C 13478,3030 13501,3052 13527,3072 L 13221,3072 C 13215,3063 13209,3054 13203,3045 13203,3045 13113,3039 13009,2976 L 13432,2976 C 13440,2986 13448,2996 13456,3006 Z M 14146,3034 C 14160,3016 14173,2997 14183,2976 L 14464,2976 C 14480,3000 14495,3032 14502,3072 L 14111,3072 C 14124,3061 14135,3048 14146,3034 Z M 13960,2984 C 13950,2989 13941,2992 13932,2995 13926,2995 13923,2998 13917,2998 13914,3000 13911,3000 13908,3000 L 13899,3000 13896,3000 13892,3000 13889,3000 13883,3000 13880,3000 13877,3000 13868,3000 C 13847,3000 13822,2998 13798,2992 13783,2988 13767,2983 13752,2976 L 13975,2976 C 13970,2979 13965,2982 13960,2984 Z"/>
        </g>
       </g>
       <g class="com.sun.star.drawing.ClosedBezierShape">
        <g id="id54">
         <rect class="BoundingBox" stroke="none" fill="none" x="12950" y="2934" width="1543" height="98"/>
         <path fill="rgb(247,157,22)" stroke="none" d="M 13456,3006 C 13464,3015 13472,3023 13480,3031 L 13133,3031 C 13084,3017 13017,2989 12951,2934 L 13405,2934 C 13420,2959 13437,2983 13456,3006 Z M 14191,2958 C 14195,2950 14198,2942 14201,2934 L 14430,2934 C 14449,2952 14475,2983 14491,3031 L 14148,3031 C 14165,3009 14180,2985 14191,2958 Z M 13816,2936 C 13831,2941 13850,2947 13868,2950 L 13874,2950 13877,2950 13880,2950 13886,2950 13892,2950 13899,2950 13905,2950 13917,2950 C 13926,2947 13935,2947 13941,2944 13950,2941 13957,2939 13963,2936 13966,2936 13966,2933 13972,2939 13978,2933 13987,2936 13993,2941 13999,2947 13999,2958 13990,2964 L 13984,2969 C 13975,2975 13969,2981 13960,2984 13950,2989 13941,2992 13932,2995 13926,2995 13923,2998 13917,2998 13914,3000 13911,3000 13908,3000 L 13899,3000 13896,3000 13892,3000 13889,3000 13883,3000 13880,3000 13877,3000 13868,3000 C 13847,3000 13822,2998 13798,2992 13774,2986 13749,2975 13725,2961 13712,2953 13699,2944 13688,2934 L 13813,2934 C 13814,2935 13815,2935 13816,2936 Z"/>
        </g>
       </g>
       <g class="com.sun.star.drawing.ClosedBezierShape">
        <g id="id55">
         <rect class="BoundingBox" stroke="none" fill="none" x="12905" y="2892" width="1569" height="99"/>
         <path fill="rgb(246,153,23)" stroke="none" d="M 13401,2927 C 13413,2949 13427,2970 13443,2989 L 13033,2989 C 12992,2967 12948,2936 12905,2892 L 13384,2892 C 13389,2904 13395,2916 13401,2927 Z M 14191,2958 C 14198,2944 14204,2930 14207,2916 14210,2908 14210,2902 14213,2899 14213,2897 14213,2895 14213,2892 L 14408,2892 14408,2896 C 14405,2902 14405,2910 14405,2916 L 14408,2916 C 14408,2916 14444,2939 14473,2989 L 14176,2989 C 14182,2979 14187,2969 14191,2958 Z M 13767,2905 C 13783,2919 13798,2927 13816,2936 13831,2941 13850,2947 13868,2950 L 13874,2950 13877,2950 13880,2950 13886,2950 13892,2950 13899,2950 13905,2950 13917,2950 C 13926,2947 13935,2947 13941,2944 13950,2941 13957,2939 13963,2936 13966,2936 13966,2933 13972,2939 13978,2933 13987,2936 13993,2941 13999,2947 13999,2958 13990,2964 L 13984,2969 C 13975,2975 13969,2981 13960,2984 13956,2986 13952,2988 13948,2989 L 13788,2989 C 13767,2983 13746,2973 13725,2961 13700,2947 13679,2927 13661,2905 13657,2901 13654,2897 13651,2892 L 13754,2892 C 13758,2897 13763,2901 13767,2905 Z"/>
        </g>
       </g>
       <g class="com.sun.star.drawing.ClosedBezierShape">
        <g id="id56">
         <rect class="BoundingBox" stroke="none" fill="none" x="12898" y="2850" width="1547" height="99"/>
         <path fill="rgb(246,149,24)" stroke="none" d="M 13401,2927 C 13405,2934 13409,2941 13413,2948 L 12968,2948 C 12945,2930 12921,2910 12898,2885 12898,2885 12902,2872 12912,2851 L 13368,2851 C 13376,2876 13388,2902 13401,2927 Z M 14207,2916 C 14210,2908 14210,2902 14213,2899 14213,2891 14216,2885 14216,2877 14219,2868 14219,2863 14219,2854 L 14219,2851 14408,2851 14408,2851 14408,2854 14408,2863 14408,2896 C 14405,2902 14405,2910 14405,2916 L 14408,2916 C 14408,2916 14424,2926 14443,2948 L 14196,2948 C 14200,2937 14204,2927 14207,2916 Z M 13728,2860 C 13740,2877 13752,2893 13767,2905 13783,2919 13798,2927 13816,2936 13829,2940 13843,2945 13858,2948 L 13705,2948 C 13689,2936 13674,2921 13661,2905 13648,2889 13636,2870 13628,2851 L 13723,2851 C 13725,2854 13726,2857 13728,2860 Z M 13941,2944 C 13950,2941 13957,2939 13963,2936 13966,2936 13966,2933 13972,2939 13978,2933 13987,2936 13993,2941 13995,2943 13996,2945 13997,2948 L 13925,2948 C 13931,2947 13937,2946 13941,2944 Z"/>
        </g>
       </g>
       <g class="com.sun.star.drawing.ClosedBezierShape">
        <g id="id57">
         <rect class="BoundingBox" stroke="none" fill="none" x="12898" y="2809" width="1512" height="99"/>
         <path fill="rgb(245,145,26)" stroke="none" d="M 13365,2843 C 13372,2864 13380,2885 13391,2906 L 12919,2906 C 12912,2900 12905,2892 12898,2885 12898,2885 12908,2852 12935,2809 L 13356,2809 C 13358,2821 13361,2832 13365,2843 Z M 14213,2899 C 14213,2891 14216,2885 14216,2877 14219,2868 14219,2863 14219,2854 L 14219,2843 14219,2837 14219,2832 14219,2826 14219,2820 14219,2815 14219,2809 14408,2809 14408,2815 14408,2823 14408,2832 14408,2840 14408,2846 14408,2848 14408,2851 14408,2854 14408,2863 14408,2896 C 14406,2899 14406,2903 14405,2906 L 14209,2906 C 14210,2903 14211,2901 14213,2899 Z M 13728,2860 C 13740,2877 13752,2893 13767,2905 13768,2905 13769,2906 13769,2906 L 13662,2906 C 13662,2906 13661,2905 13661,2905 13642,2882 13627,2854 13618,2826 13617,2820 13616,2815 13614,2809 L 13708,2809 C 13711,2827 13720,2845 13728,2860 Z"/>
        </g>
       </g>
       <g class="com.sun.star.drawing.ClosedBezierShape">
        <g id="id58">
         <rect class="BoundingBox" stroke="none" fill="none" x="12905" y="2767" width="1505" height="99"/>
         <path fill="rgb(245,140,27)" stroke="none" d="M 13365,2843 C 13367,2850 13370,2857 13373,2865 L 12906,2865 C 12915,2843 12933,2807 12964,2768 L 13350,2768 C 13352,2794 13357,2819 13365,2843 Z M 14219,2854 L 14219,2843 14219,2837 14219,2832 14219,2826 14219,2820 14219,2815 14219,2809 C 14219,2803 14216,2795 14216,2789 14214,2782 14212,2775 14210,2768 L 14403,2768 C 14405,2778 14405,2788 14408,2798 L 14408,2806 14408,2815 14408,2823 14408,2832 14408,2840 14408,2846 14408,2848 14408,2851 14408,2854 14408,2863 14408,2865 14219,2865 C 14219,2861 14219,2858 14219,2854 Z M 13703,2772 C 13703,2784 13703,2795 13706,2803 13709,2823 13719,2843 13728,2860 13729,2861 13730,2863 13731,2865 L 13634,2865 C 13628,2852 13622,2839 13618,2826 13615,2812 13612,2798 13609,2781 L 13609,2770 13609,2768 13703,2768 13703,2772 Z"/>
        </g>
       </g>
       <g class="com.sun.star.drawing.ClosedBezierShape">
        <g id="id59">
         <rect class="BoundingBox" stroke="none" fill="none" x="12925" y="2726" width="1485" height="100"/>
         <path fill="rgb(245,136,28)" stroke="none" d="M 13350,2730 L 13350,2733 13350,2736 13350,2741 13350,2744 13350,2747 13350,2753 C 13350,2777 13353,2801 13359,2824 L 12926,2824 C 12942,2796 12967,2760 13002,2726 L 13350,2726 13350,2730 Z M 14219,2820 L 14219,2815 14219,2809 C 14219,2803 14216,2795 14216,2789 14211,2769 14204,2746 14195,2726 L 14389,2726 C 14394,2739 14398,2751 14402,2764 14405,2775 14405,2786 14408,2798 L 14408,2806 14408,2815 14408,2823 14408,2824 14219,2824 14219,2820 Z M 13706,2741 C 13703,2747 13703,2753 13703,2758 L 13703,2761 13703,2764 13703,2772 C 13703,2784 13703,2795 13706,2803 13707,2810 13709,2817 13712,2824 L 13618,2824 C 13615,2811 13612,2797 13609,2781 L 13609,2770 13609,2764 13609,2758 13609,2736 C 13609,2733 13609,2730 13609,2726 L 13710,2726 C 13709,2731 13708,2736 13706,2741 Z"/>
        </g>
       </g>
       <g class="com.sun.star.drawing.ClosedBezierShape">
        <g id="id60">
         <rect class="BoundingBox" stroke="none" fill="none" x="12952" y="2684" width="1455" height="100"/>
         <path fill="rgb(244,132,29)" stroke="none" d="M 13350,2708 L 13350,2719 13350,2722 13350,2730 13350,2733 13350,2736 13350,2741 13350,2744 13350,2747 13350,2753 C 13350,2763 13350,2773 13351,2783 L 12953,2783 C 12976,2750 13009,2715 13053,2685 L 13351,2685 C 13350,2693 13350,2701 13350,2708 Z M 14188,2713 C 14183,2703 14176,2694 14170,2685 L 14371,2685 C 14384,2710 14394,2737 14402,2764 14404,2770 14404,2777 14405,2783 L 14214,2783 C 14208,2759 14200,2734 14188,2713 Z M 13706,2741 C 13703,2747 13703,2753 13703,2758 L 13703,2761 13703,2764 13703,2772 C 13703,2776 13703,2779 13703,2783 L 13609,2783 C 13609,2782 13609,2782 13609,2781 L 13609,2770 13609,2764 13609,2758 13609,2736 C 13609,2719 13612,2702 13616,2685 L 13727,2685 C 13717,2703 13711,2722 13706,2741 Z"/>
        </g>
       </g>
       <g class="com.sun.star.drawing.ClosedBezierShape">
        <g id="id61">
         <rect class="BoundingBox" stroke="none" fill="none" x="12987" y="2643" width="1541" height="100"/>
         <path fill="rgb(244,128,30)" stroke="none" d="M 14527,2657 C 14527,2663 14521,2668 14515,2668 14509,2671 14503,2665 14500,2660 14498,2654 14496,2649 14494,2643 L 14525,2643 C 14525,2648 14526,2652 14527,2657 Z M 13353,2663 C 13353,2677 13350,2694 13350,2708 L 13350,2719 13350,2722 13350,2730 13350,2733 13350,2736 13350,2741 12987,2741 C 13019,2707 13062,2673 13118,2649 13118,2647 13118,2645 13118,2643 L 13357,2643 C 13355,2650 13354,2657 13353,2663 Z M 14188,2713 C 14173,2687 14154,2664 14131,2643 L 14347,2643 C 14367,2673 14383,2707 14395,2741 L 14201,2741 C 14197,2731 14193,2722 14188,2713 Z M 13706,2741 L 13609,2741 13609,2736 C 13609,2705 13618,2674 13630,2643 L 13754,2643 C 13729,2673 13714,2707 13706,2741 Z"/>
        </g>
       </g>
       <g class="com.sun.star.drawing.ClosedBezierShape">
        <g id="id62">
         <rect class="BoundingBox" stroke="none" fill="none" x="13032" y="2601" width="1496" height="100"/>
         <path fill="rgb(243,124,31)" stroke="none" d="M 14527,2657 C 14527,2663 14521,2668 14515,2668 14509,2671 14503,2665 14500,2660 14493,2643 14487,2626 14481,2606 14481,2605 14481,2603 14480,2602 L 14520,2602 C 14521,2618 14523,2634 14527,2657 Z M 13362,2618 C 13359,2632 13356,2649 13353,2663 13353,2674 13351,2688 13350,2700 L 13033,2700 C 13057,2681 13085,2663 13118,2649 13118,2640 13121,2634 13121,2629 13122,2620 13123,2611 13125,2602 L 13365,2602 C 13364,2607 13363,2613 13362,2618 Z M 14071,2602 L 14316,2602 C 14327,2615 14338,2629 14347,2643 14359,2661 14369,2680 14378,2700 L 14180,2700 C 14153,2659 14115,2625 14071,2602 Z M 13774,2623 C 13749,2646 13731,2672 13720,2700 L 13613,2700 C 13616,2681 13623,2662 13630,2643 13637,2629 13645,2615 13653,2602 L 13802,2602 C 13791,2610 13782,2615 13774,2623 Z"/>
        </g>
       </g>
       <g class="com.sun.star.drawing.ClosedBezierShape">
        <g id="id63">
         <rect class="BoundingBox" stroke="none" fill="none" x="13097" y="2560" width="1431" height="100"/>
         <path fill="rgb(243,119,32)" stroke="none" d="M 14518,2584 C 14521,2606 14521,2626 14527,2657 14527,2657 14527,2658 14527,2658 L 14499,2658 C 14493,2642 14487,2625 14481,2606 14478,2592 14472,2581 14466,2567 14464,2564 14464,2562 14463,2560 L 14515,2560 C 14516,2568 14517,2576 14518,2584 Z M 13374,2573 C 13368,2587 13365,2604 13362,2618 13359,2630 13356,2645 13353,2658 L 13097,2658 C 13104,2655 13111,2652 13118,2649 13118,2640 13121,2634 13121,2629 13124,2605 13129,2582 13134,2560 L 13378,2560 C 13376,2564 13375,2568 13374,2573 Z M 14069,2601 C 14045,2587 14018,2578 13990,2573 13975,2570 13963,2567 13947,2567 L 13941,2567 13938,2567 13932,2567 13929,2567 13911,2567 C 13899,2567 13886,2570 13874,2573 13862,2575 13850,2578 13838,2584 13825,2589 13813,2595 13804,2601 13792,2609 13783,2615 13774,2623 13762,2634 13752,2646 13743,2658 L 13624,2658 C 13626,2653 13628,2648 13630,2643 13645,2614 13662,2587 13684,2560 L 14276,2560 C 14303,2585 14327,2613 14347,2643 14350,2648 14354,2653 14357,2658 L 14147,2658 C 14124,2635 14098,2615 14069,2601 Z"/>
        </g>
       </g>
       <g class="com.sun.star.drawing.ClosedBezierShape">
        <g id="id64">
         <rect class="BoundingBox" stroke="none" fill="none" x="13122" y="2518" width="1401" height="100"/>
         <path fill="rgb(243,115,33)" stroke="none" d="M 14518,2584 C 14519,2595 14520,2605 14521,2617 L 14485,2617 C 14483,2613 14482,2610 14481,2606 14478,2592 14472,2581 14466,2567 14463,2561 14463,2558 14460,2556 14457,2550 14457,2547 14454,2544 14451,2542 14451,2536 14448,2533 14448,2530 14445,2530 14445,2528 14445,2525 14442,2525 14442,2522 14441,2521 14441,2520 14440,2519 L 14507,2519 C 14512,2542 14516,2564 14518,2584 Z M 13374,2573 C 13368,2586 13365,2603 13362,2617 L 13123,2617 C 13128,2582 13137,2550 13146,2519 L 13393,2519 C 13386,2536 13379,2554 13374,2573 Z M 14069,2601 C 14045,2587 14018,2578 13990,2573 13975,2570 13963,2567 13947,2567 L 13941,2567 13938,2567 13932,2567 13929,2567 13911,2567 C 13899,2567 13886,2570 13874,2573 13862,2575 13850,2578 13838,2584 13825,2589 13813,2595 13804,2601 13795,2607 13788,2611 13781,2617 L 13644,2617 C 13657,2596 13671,2576 13688,2556 13700,2542 13713,2530 13727,2519 L 14224,2519 C 14236,2527 14248,2535 14259,2544 14284,2566 14308,2590 14328,2617 L 14097,2617 C 14088,2611 14079,2606 14069,2601 Z"/>
        </g>
       </g>
       <g class="com.sun.star.drawing.ClosedBezierShape">
        <g id="id65">
         <rect class="BoundingBox" stroke="none" fill="none" x="13130" y="2478" width="1388" height="99"/>
         <path fill="rgb(242,111,34)" stroke="none" d="M 14466,2567 C 14463,2561 14463,2558 14460,2556 14457,2550 14457,2547 14454,2544 14451,2542 14451,2536 14448,2533 14448,2530 14445,2530 14445,2528 14445,2525 14442,2525 14442,2522 14434,2507 14425,2493 14415,2478 L 14496,2478 C 14497,2483 14498,2487 14500,2491 14508,2521 14514,2549 14517,2575 L 14470,2575 C 14468,2573 14467,2570 14466,2567 Z M 13407,2485 C 13395,2513 13383,2542 13374,2573 13374,2573 13373,2574 13373,2575 L 13131,2575 C 13137,2550 13144,2526 13151,2502 13153,2494 13157,2486 13160,2478 L 13411,2478 C 13410,2481 13409,2483 13407,2485 Z M 13990,2573 C 13975,2570 13963,2567 13947,2567 L 13941,2567 13938,2567 13932,2567 13929,2567 13911,2567 C 13899,2567 13886,2570 13874,2573 13871,2573 13867,2574 13863,2575 L 13672,2575 C 13677,2569 13682,2562 13688,2556 13713,2528 13743,2505 13777,2485 13781,2483 13785,2480 13789,2478 L 14149,2478 C 14188,2495 14226,2517 14259,2544 14270,2554 14281,2564 14292,2575 L 14002,2575 C 13998,2574 13994,2573 13990,2573 Z"/>
        </g>
       </g>
       <g class="com.sun.star.drawing.ClosedBezierShape">
        <g id="id66">
         <rect class="BoundingBox" stroke="none" fill="none" x="13140" y="2436" width="1371" height="99"/>
         <path fill="rgb(242,107,36)" stroke="none" d="M 14448,2533 C 14448,2530 14445,2530 14445,2528 14445,2525 14442,2525 14442,2522 14427,2493 14407,2466 14384,2437 L 14481,2437 C 14489,2456 14495,2474 14500,2491 14504,2506 14507,2520 14510,2534 L 14448,2534 C 14448,2533 14448,2533 14448,2533 Z M 13407,2485 C 13401,2501 13394,2517 13387,2534 L 13142,2534 C 13145,2523 13148,2512 13151,2502 13154,2491 13160,2480 13163,2468 13159,2463 13151,2452 13140,2437 L 13435,2437 C 13425,2452 13416,2468 13407,2485 Z M 13777,2485 C 13810,2466 13850,2454 13892,2446 13902,2446 13914,2443 13923,2443 L 13932,2443 13941,2443 13944,2443 13947,2443 13950,2443 13960,2443 C 13978,2443 13999,2443 14021,2446 14063,2449 14106,2460 14146,2477 14180,2492 14215,2510 14245,2534 L 13710,2534 C 13730,2515 13752,2500 13777,2485 Z"/>
        </g>
       </g>
       <g class="com.sun.star.drawing.ClosedBezierShape">
        <g id="id67">
         <rect class="BoundingBox" stroke="none" fill="none" x="13116" y="2395" width="1385" height="99"/>
         <path fill="rgb(241,103,37)" stroke="none" d="M 14381,2432 C 14371,2420 14359,2407 14347,2395 L 14463,2395 C 14479,2429 14492,2462 14500,2491 14500,2491 14500,2492 14500,2492 L 14425,2492 C 14412,2472 14397,2453 14381,2432 Z M 13407,2485 C 13406,2488 13405,2490 13405,2492 L 13155,2492 C 13158,2484 13161,2476 13163,2468 13156,2459 13136,2434 13117,2395 L 13464,2395 C 13443,2422 13424,2452 13407,2485 Z M 13777,2485 C 13810,2466 13850,2454 13892,2446 13902,2446 13914,2443 13923,2443 L 13932,2443 13941,2443 13944,2443 13947,2443 13950,2443 13960,2443 C 13978,2443 13999,2443 14021,2446 14063,2449 14106,2460 14146,2477 14157,2482 14168,2487 14178,2492 L 13765,2492 C 13769,2490 13773,2488 13777,2485 Z"/>
        </g>
       </g>
       <g class="com.sun.star.drawing.ClosedBezierShape">
        <g id="id68">
         <rect class="BoundingBox" stroke="none" fill="none" x="13098" y="2353" width="1390" height="99"/>
         <path fill="rgb(241,98,38)" stroke="none" d="M 14381,2432 C 14368,2418 14353,2401 14338,2387 L 14326,2376 14313,2364 14302,2354 14440,2354 C 14445,2362 14449,2370 14454,2378 14467,2403 14478,2427 14487,2451 L 14395,2451 C 14390,2444 14386,2438 14381,2432 Z M 13426,2451 L 13150,2451 C 13136,2431 13115,2398 13099,2354 L 13502,2354 C 13473,2382 13448,2414 13426,2451 Z M 13892,2446 C 13902,2446 13914,2443 13923,2443 L 13932,2443 13941,2443 13944,2443 13947,2443 13950,2443 13960,2443 C 13978,2443 13999,2443 14021,2446 14033,2447 14046,2448 14059,2451 L 13870,2451 C 13878,2449 13885,2447 13892,2446 Z"/>
        </g>
       </g>
       <g class="com.sun.star.drawing.ClosedBezierShape">
        <g id="id69">
         <rect class="BoundingBox" stroke="none" fill="none" x="13085" y="2312" width="1386" height="99"/>
         <path fill="rgb(240,94,39)" stroke="none" d="M 14338,2387 L 14326,2376 14313,2364 14301,2353 14295,2347 14289,2342 C 14277,2331 14263,2322 14249,2312 L 14413,2312 C 14429,2334 14442,2357 14454,2378 14459,2389 14464,2399 14469,2409 L 14360,2409 C 14353,2401 14345,2394 14338,2387 Z M 13548,2314 C 13536,2322 13526,2333 13514,2342 13492,2362 13472,2384 13454,2409 L 13124,2409 C 13110,2384 13096,2351 13085,2312 L 13550,2312 13548,2314 Z"/>
        </g>
       </g>
       <g class="com.sun.star.drawing.ClosedBezierShape">
        <g id="id70">
         <rect class="BoundingBox" stroke="none" fill="none" x="13070" y="1866" width="1379" height="503"/>
         <path fill="rgb(240,90,40)" stroke="none" d="M 14313,2364 L 14301,2353 14295,2347 14289,2342 C 14255,2314 14213,2288 14167,2269 14121,2249 14072,2232 14018,2224 13990,2218 13963,2215 13935,2215 L 13892,2215 13880,2215 13877,2215 C 13880,2215 13877,2215 13877,2215 L 13871,2215 13859,2215 13856,2215 13853,2215 13847,2215 13838,2215 13825,2215 C 13822,2218 13816,2218 13813,2218 13807,2221 13804,2221 13801,2221 L 13795,2221 13789,2221 C 13783,2224 13780,2224 13777,2224 13770,2224 13767,2226 13764,2226 13758,2226 13755,2229 13752,2229 13746,2232 13737,2232 13731,2235 13725,2235 13722,2238 13719,2238 13713,2238 13709,2240 13706,2240 13691,2243 13676,2249 13664,2254 13661,2254 13658,2254 13655,2257 13652,2257 13648,2260 13645,2260 13636,2263 13630,2266 13624,2269 13609,2274 13597,2280 13584,2288 L 13548,2314 C 13536,2322 13526,2333 13514,2342 13505,2350 13497,2359 13488,2368 L 13104,2368 C 13082,2314 13064,2242 13072,2153 13072,2153 13237,2074 13420,2139 13420,2139 13423,2142 13426,2142 13444,2131 13462,2119 13481,2111 13499,2100 13517,2091 13539,2083 13548,2080 13560,2074 13569,2071 13578,2069 13590,2066 13600,2063 13606,2060 13615,2060 13621,2057 L 13621,2052 C 13621,2052 13648,1945 13780,1866 13780,1866 13899,1917 13938,2041 L 13947,2041 C 13966,2041 13984,2046 14002,2049 14021,2055 14036,2057 14054,2063 14072,2069 14088,2074 14103,2080 14109,2083 14112,2083 14115,2086 14137,2071 14198,2038 14292,2043 14292,2043 14347,2122 14323,2212 14338,2226 14353,2240 14368,2257 14402,2293 14427,2331 14448,2368 L 14317,2368 14313,2364 Z"/>
        </g>
       </g>
      </g>
      <g class="com.sun.star.drawing.ConnectorShape">
       <g id="id71">
        <rect class="BoundingBox" stroke="none" fill="none" x="7309" y="8719" width="4187" height="1562"/>
        <path fill="none" stroke="rgb(17,17,17)" d="M 7310,10279 L 11494,8720"/>
       </g>
      </g>
      <g class="com.sun.star.drawing.ConnectorShape">
       <g id="id72">
        <rect class="BoundingBox" stroke="none" fill="none" x="10526" y="8719" width="970" height="1562"/>
        <path fill="none" stroke="rgb(0,0,0)" d="M 10527,10279 L 11494,8720"/>
       </g>
      </g>
      <g class="com.sun.star.drawing.ConnectorShape">
       <g id="id73">
        <rect class="BoundingBox" stroke="none" fill="none" x="11493" y="8719" width="2231" height="1562"/>
        <path fill="none" stroke="rgb(0,0,0)" d="M 13722,10279 L 11494,8720"/>
       </g>
      </g>
      <g class="com.sun.star.drawing.ConnectorShape">
       <g id="id74">
        <rect class="BoundingBox" stroke="none" fill="none" x="11493" y="3492" width="2221" height="3610"/>
        <path fill="none" stroke="rgb(0,0,0)" d="M 11494,7100 L 13712,3493"/>
       </g>
      </g>
      <g class="Group">
       <g class="com.sun.star.drawing.CustomShape">
        <g id="id75">
         <rect class="BoundingBox" stroke="none" fill="none" x="15117" y="7166" width="1441" height="1417"/>
         <path fill="rgb(230,82,44)" stroke="none" d="M 15837,7167 C 15969,7167 16082,7197 16197,7262 16311,7327 16394,7408 16460,7521 16526,7633 16557,7744 16557,7874 16557,8004 16526,8115 16460,8228 16394,8340 16311,8421 16197,8486 16082,8551 15969,8581 15837,8581 15705,8581 15592,8551 15477,8486 15363,8421 15280,8340 15214,8228 15148,8115 15118,8004 15118,7874 15118,7744 15148,7633 15214,7521 15280,7408 15363,7327 15477,7262 15592,7197 15705,7167 15837,7167 L 15837,7167 Z"/>
         <path fill="none" stroke="rgb(52,101,164)" d="M 15805,7168 C 15816,7167 15826,7167 15837,7167 15855,7167 15873,7168 15890,7169"/>
         <path fill="none" stroke="rgb(52,101,164)" d="M 15924,7172 C 15942,7174 15959,7176 15977,7179"/>
         <path fill="none" stroke="rgb(52,101,164)" d="M 16010,7187 C 16027,7191 16044,7196 16061,7201"/>
         <path fill="none" stroke="rgb(52,101,164)" d="M 16093,7213 C 16110,7219 16126,7226 16142,7233"/>
         <path fill="none" stroke="rgb(52,101,164)" d="M 16173,7249 C 16181,7253 16189,7257 16197,7262 16204,7266 16212,7270 16219,7275"/>
         <path fill="none" stroke="rgb(52,101,164)" d="M 16248,7293 C 16263,7303 16277,7314 16291,7324"/>
         <path fill="none" stroke="rgb(52,101,164)" d="M 16317,7346 C 16331,7358 16344,7370 16356,7383"/>
         <path fill="none" stroke="rgb(52,101,164)" d="M 16379,7408 C 16391,7421 16402,7435 16413,7449"/>
         <path fill="none" stroke="rgb(52,101,164)" d="M 16432,7477 C 16442,7491 16451,7505 16460,7521 16460,7521 16461,7521 16461,7522"/>
         <path fill="none" stroke="rgb(52,101,164)" d="M 16478,7552 C 16486,7568 16494,7583 16501,7599"/>
         <path fill="none" stroke="rgb(52,101,164)" d="M 16514,7631 C 16520,7648 16526,7664 16531,7681"/>
         <path fill="none" stroke="rgb(52,101,164)" d="M 16539,7714 C 16543,7732 16546,7749 16549,7767"/>
         <path fill="none" stroke="rgb(52,101,164)" d="M 16553,7801 C 16555,7818 16556,7836 16556,7854"/>
         <path fill="none" stroke="rgb(52,101,164)" d="M 16556,7888 C 16556,7906 16555,7924 16554,7941"/>
         <path fill="none" stroke="rgb(52,101,164)" d="M 16550,7975 C 16547,7993 16544,8010 16541,8027"/>
         <path fill="none" stroke="rgb(52,101,164)" d="M 16532,8060 C 16528,8077 16522,8094 16516,8111"/>
         <path fill="none" stroke="rgb(52,101,164)" d="M 16503,8143 C 16496,8159 16489,8175 16481,8191"/>
         <path fill="none" stroke="rgb(52,101,164)" d="M 16464,8221 C 16463,8223 16461,8225 16460,8228 16452,8241 16444,8253 16436,8266"/>
         <path fill="none" stroke="rgb(52,101,164)" d="M 16417,8294 C 16406,8308 16395,8322 16383,8335"/>
         <path fill="none" stroke="rgb(52,101,164)" d="M 16360,8361 C 16348,8373 16335,8386 16322,8398"/>
         <path fill="none" stroke="rgb(52,101,164)" d="M 16296,8420 C 16282,8430 16268,8441 16253,8451"/>
         <path fill="none" stroke="rgb(52,101,164)" d="M 16225,8470 C 16216,8475 16206,8481 16197,8486 16191,8490 16185,8493 16179,8496"/>
         <path fill="none" stroke="rgb(52,101,164)" d="M 16148,8512 C 16132,8520 16116,8527 16099,8533"/>
         <path fill="none" stroke="rgb(52,101,164)" d="M 16067,8545 C 16051,8551 16034,8556 16016,8560"/>
         <path fill="none" stroke="rgb(52,101,164)" d="M 15983,8567 C 15966,8571 15948,8574 15931,8576"/>
         <path fill="none" stroke="rgb(52,101,164)" d="M 15897,8579 C 15879,8580 15862,8581 15844,8581"/>
         <path fill="none" stroke="rgb(52,101,164)" d="M 15809,8581 C 15791,8580 15774,8579 15756,8577"/>
         <path fill="none" stroke="rgb(52,101,164)" d="M 15722,8573 C 15705,8570 15687,8567 15670,8563"/>
         <path fill="none" stroke="rgb(52,101,164)" d="M 15637,8554 C 15620,8550 15603,8544 15587,8538"/>
         <path fill="none" stroke="rgb(52,101,164)" d="M 15555,8525 C 15539,8518 15523,8511 15507,8502"/>
         <path fill="none" stroke="rgb(52,101,164)" d="M 15477,8486 C 15461,8477 15446,8468 15431,8458"/>
         <path fill="none" stroke="rgb(52,101,164)" d="M 15403,8439 C 15389,8428 15375,8417 15362,8406"/>
         <path fill="none" stroke="rgb(52,101,164)" d="M 15336,8383 C 15323,8371 15311,8358 15299,8345"/>
         <path fill="none" stroke="rgb(52,101,164)" d="M 15277,8319 C 15266,8306 15255,8291 15245,8277"/>
         <path fill="none" stroke="rgb(52,101,164)" d="M 15226,8248 C 15222,8241 15218,8234 15214,8228 15209,8219 15204,8211 15200,8202"/>
         <path fill="none" stroke="rgb(52,101,164)" d="M 15184,8172 C 15176,8155 15169,8139 15163,8123"/>
         <path fill="none" stroke="rgb(52,101,164)" d="M 15151,8091 C 15145,8074 15141,8057 15136,8040"/>
         <path fill="none" stroke="rgb(52,101,164)" d="M 15129,8006 C 15126,7989 15123,7972 15122,7954"/>
         <path fill="none" stroke="rgb(52,101,164)" d="M 15119,7920 C 15118,7905 15118,7890 15118,7874 15118,7872 15118,7869 15118,7867"/>
         <path fill="none" stroke="rgb(52,101,164)" d="M 15119,7832 C 15120,7814 15121,7797 15123,7779"/>
         <path fill="none" stroke="rgb(52,101,164)" d="M 15128,7746 C 15132,7728 15135,7711 15140,7694"/>
         <path fill="none" stroke="rgb(52,101,164)" d="M 15150,7661 C 15155,7644 15161,7628 15168,7611"/>
         <path fill="none" stroke="rgb(52,101,164)" d="M 15182,7580 C 15190,7564 15198,7549 15207,7533"/>
         <path fill="none" stroke="rgb(52,101,164)" d="M 15224,7503 C 15234,7488 15243,7473 15254,7459"/>
         <path fill="none" stroke="rgb(52,101,164)" d="M 15274,7432 C 15285,7418 15297,7405 15309,7392"/>
         <path fill="none" stroke="rgb(52,101,164)" d="M 15333,7368 C 15346,7355 15359,7344 15373,7333"/>
         <path fill="none" stroke="rgb(52,101,164)" d="M 15400,7312 C 15414,7301 15429,7291 15444,7282"/>
         <path fill="none" stroke="rgb(52,101,164)" d="M 15473,7264 C 15475,7263 15476,7263 15477,7262 15492,7254 15506,7246 15520,7239"/>
         <path fill="none" stroke="rgb(52,101,164)" d="M 15551,7225 C 15568,7217 15584,7211 15601,7205"/>
         <path fill="none" stroke="rgb(52,101,164)" d="M 15633,7195 C 15650,7190 15667,7186 15685,7182"/>
         <path fill="none" stroke="rgb(52,101,164)" d="M 15718,7176 C 15736,7173 15753,7171 15771,7170"/>
        </g>
       </g>
       <g class="Graphic">
        <g id="id76">
         <rect class="BoundingBox" stroke="none" fill="none" x="15088" y="7080" width="1613" height="1621"/>
         <path fill="rgb(238,238,238)" stroke="none" d="M 15880,7096 C 15447,7096 15095,7454 15095,7895 15095,8336 15447,8693 15880,8693 16314,8693 16665,8336 16665,7895 16665,7454 16314,7096 15880,7096 L 15880,7096 Z M 15880,8590 C 15757,8590 15657,8507 15657,8403 L 16104,8403 C 16104,8507 16004,8590 15880,8590 L 15880,8590 Z M 16249,8341 L 15511,8341 15511,8205 16249,8205 16249,8341 16249,8341 Z M 16247,8135 L 15513,8135 C 15511,8132 15508,8130 15506,8127 15430,8033 15413,7985 15395,7935 15395,7934 15487,7954 15552,7969 15552,7969 15586,7977 15635,7986 15588,7930 15560,7859 15560,7786 15560,7626 15680,7486 15637,7373 15679,7376 15725,7464 15728,7601 15773,7537 15791,7422 15791,7351 15791,7277 15839,7192 15887,7189 15844,7260 15898,7321 15945,7472 15963,7529 15961,7625 15974,7685 15979,7559 16000,7376 16079,7312 16044,7392 16084,7492 16111,7540 16155,7618 16182,7676 16182,7787 16182,7862 16155,7932 16109,7987 16161,7977 16197,7968 16197,7968 L 16365,7934 C 16365,7934 16341,8037 16247,8135 L 16247,8135 Z"/>
        </g>
       </g>
      </g>
      <g class="com.sun.star.drawing.ConnectorShape">
       <g id="id77">
        <rect class="BoundingBox" stroke="none" fill="none" x="15893" y="8699" width="1026" height="1582"/>
        <path fill="none" stroke="rgb(0,0,0)" d="M 16917,10279 L 15894,8700"/>
       </g>
      </g>
      <g class="com.sun.star.drawing.ConnectorShape">
       <g id="id78">
        <rect class="BoundingBox" stroke="none" fill="none" x="15893" y="8699" width="4199" height="1558"/>
        <path fill="none" stroke="rgb(0,0,0)" d="M 20090,10255 L 15894,8700"/>
       </g>
      </g>
      <g class="com.sun.star.drawing.ConnectorShape">
       <g id="id79">
        <rect class="BoundingBox" stroke="none" fill="none" x="13711" y="3492" width="2185" height="3590"/>
        <path fill="none" stroke="rgb(0,0,0)" d="M 15894,7080 L 13712,3493"/>
       </g>
      </g>
      <g class="Group">
       <g class="com.sun.star.drawing.CustomShape">
        <g id="id80">
         <rect class="BoundingBox" stroke="none" fill="none" x="10717" y="4186" width="1441" height="1417"/>
         <path fill="rgb(230,82,44)" stroke="none" d="M 11437,4187 C 11569,4187 11682,4217 11797,4282 11911,4347 11994,4428 12060,4541 12126,4653 12157,4764 12157,4894 12157,5024 12126,5135 12060,5248 11994,5360 11911,5441 11797,5506 11682,5571 11569,5601 11437,5601 11305,5601 11192,5571 11077,5506 10963,5441 10880,5360 10814,5248 10748,5135 10718,5024 10718,4894 10718,4764 10748,4653 10814,4541 10880,4428 10963,4347 11077,4282 11192,4217 11305,4187 11437,4187 L 11437,4187 Z"/>
         <path fill="none" stroke="rgb(52,101,164)" d="M 11405,4188 C 11416,4187 11426,4187 11437,4187 11455,4187 11473,4188 11490,4189"/>
         <path fill="none" stroke="rgb(52,101,164)" d="M 11524,4192 C 11542,4194 11559,4196 11577,4199"/>
         <path fill="none" stroke="rgb(52,101,164)" d="M 11610,4207 C 11627,4211 11644,4216 11661,4221"/>
         <path fill="none" stroke="rgb(52,101,164)" d="M 11693,4233 C 11710,4239 11726,4246 11742,4253"/>
         <path fill="none" stroke="rgb(52,101,164)" d="M 11773,4269 C 11781,4273 11789,4277 11797,4282 11804,4286 11812,4290 11819,4295"/>
         <path fill="none" stroke="rgb(52,101,164)" d="M 11848,4313 C 11863,4323 11877,4334 11891,4344"/>
         <path fill="none" stroke="rgb(52,101,164)" d="M 11917,4366 C 11931,4378 11944,4390 11956,4403"/>
         <path fill="none" stroke="rgb(52,101,164)" d="M 11979,4428 C 11991,4441 12002,4455 12013,4469"/>
         <path fill="none" stroke="rgb(52,101,164)" d="M 12032,4497 C 12042,4511 12051,4525 12060,4541 12060,4541 12061,4541 12061,4542"/>
         <path fill="none" stroke="rgb(52,101,164)" d="M 12078,4572 C 12086,4588 12094,4603 12101,4619"/>
         <path fill="none" stroke="rgb(52,101,164)" d="M 12114,4651 C 12120,4668 12126,4684 12131,4701"/>
         <path fill="none" stroke="rgb(52,101,164)" d="M 12139,4734 C 12143,4752 12146,4769 12149,4787"/>
         <path fill="none" stroke="rgb(52,101,164)" d="M 12153,4821 C 12155,4838 12156,4856 12156,4874"/>
         <path fill="none" stroke="rgb(52,101,164)" d="M 12156,4908 C 12156,4926 12155,4944 12154,4961"/>
         <path fill="none" stroke="rgb(52,101,164)" d="M 12150,4995 C 12147,5013 12144,5030 12141,5047"/>
         <path fill="none" stroke="rgb(52,101,164)" d="M 12132,5080 C 12128,5097 12122,5114 12116,5131"/>
         <path fill="none" stroke="rgb(52,101,164)" d="M 12103,5163 C 12096,5179 12089,5195 12081,5211"/>
         <path fill="none" stroke="rgb(52,101,164)" d="M 12064,5241 C 12063,5243 12061,5245 12060,5248 12052,5261 12044,5273 12036,5286"/>
         <path fill="none" stroke="rgb(52,101,164)" d="M 12017,5314 C 12006,5328 11995,5342 11983,5355"/>
         <path fill="none" stroke="rgb(52,101,164)" d="M 11960,5381 C 11948,5393 11935,5406 11922,5418"/>
         <path fill="none" stroke="rgb(52,101,164)" d="M 11896,5440 C 11882,5450 11868,5461 11853,5471"/>
         <path fill="none" stroke="rgb(52,101,164)" d="M 11825,5490 C 11816,5495 11806,5501 11797,5506 11791,5510 11785,5513 11779,5516"/>
         <path fill="none" stroke="rgb(52,101,164)" d="M 11748,5532 C 11732,5540 11716,5547 11699,5553"/>
         <path fill="none" stroke="rgb(52,101,164)" d="M 11667,5565 C 11651,5571 11634,5576 11616,5580"/>
         <path fill="none" stroke="rgb(52,101,164)" d="M 11583,5587 C 11566,5591 11548,5594 11531,5596"/>
         <path fill="none" stroke="rgb(52,101,164)" d="M 11497,5599 C 11479,5600 11462,5601 11444,5601"/>
         <path fill="none" stroke="rgb(52,101,164)" d="M 11409,5601 C 11391,5600 11374,5599 11356,5597"/>
         <path fill="none" stroke="rgb(52,101,164)" d="M 11322,5593 C 11305,5590 11287,5587 11270,5583"/>
         <path fill="none" stroke="rgb(52,101,164)" d="M 11237,5574 C 11220,5570 11203,5564 11187,5558"/>
         <path fill="none" stroke="rgb(52,101,164)" d="M 11155,5545 C 11139,5538 11123,5531 11107,5522"/>
         <path fill="none" stroke="rgb(52,101,164)" d="M 11077,5506 C 11061,5497 11046,5488 11031,5478"/>
         <path fill="none" stroke="rgb(52,101,164)" d="M 11003,5459 C 10989,5448 10975,5437 10962,5426"/>
         <path fill="none" stroke="rgb(52,101,164)" d="M 10936,5403 C 10923,5391 10911,5378 10899,5365"/>
         <path fill="none" stroke="rgb(52,101,164)" d="M 10877,5339 C 10866,5326 10855,5311 10845,5297"/>
         <path fill="none" stroke="rgb(52,101,164)" d="M 10826,5268 C 10822,5261 10818,5254 10814,5248 10809,5239 10804,5231 10800,5222"/>
         <path fill="none" stroke="rgb(52,101,164)" d="M 10784,5192 C 10776,5175 10769,5159 10763,5143"/>
         <path fill="none" stroke="rgb(52,101,164)" d="M 10751,5111 C 10745,5094 10741,5077 10736,5060"/>
         <path fill="none" stroke="rgb(52,101,164)" d="M 10729,5026 C 10726,5009 10723,4992 10722,4974"/>
         <path fill="none" stroke="rgb(52,101,164)" d="M 10719,4940 C 10718,4925 10718,4910 10718,4894 10718,4892 10718,4889 10718,4887"/>
         <path fill="none" stroke="rgb(52,101,164)" d="M 10719,4852 C 10720,4834 10721,4817 10723,4799"/>
         <path fill="none" stroke="rgb(52,101,164)" d="M 10728,4766 C 10732,4748 10735,4731 10740,4714"/>
         <path fill="none" stroke="rgb(52,101,164)" d="M 10750,4681 C 10755,4664 10761,4648 10768,4631"/>
         <path fill="none" stroke="rgb(52,101,164)" d="M 10782,4600 C 10790,4584 10798,4569 10807,4553"/>
         <path fill="none" stroke="rgb(52,101,164)" d="M 10824,4523 C 10834,4508 10843,4493 10854,4479"/>
         <path fill="none" stroke="rgb(52,101,164)" d="M 10874,4452 C 10885,4438 10897,4425 10909,4412"/>
         <path fill="none" stroke="rgb(52,101,164)" d="M 10933,4388 C 10946,4375 10959,4364 10973,4353"/>
         <path fill="none" stroke="rgb(52,101,164)" d="M 11000,4332 C 11014,4321 11029,4311 11044,4302"/>
         <path fill="none" stroke="rgb(52,101,164)" d="M 11073,4284 C 11075,4283 11076,4283 11077,4282 11092,4274 11106,4266 11120,4259"/>
         <path fill="none" stroke="rgb(52,101,164)" d="M 11151,4245 C 11168,4237 11184,4231 11201,4225"/>
         <path fill="none" stroke="rgb(52,101,164)" d="M 11233,4215 C 11250,4210 11267,4206 11285,4202"/>
         <path fill="none" stroke="rgb(52,101,164)" d="M 11318,4196 C 11336,4193 11353,4191 11371,4190"/>
        </g>
       </g>
       <g class="Graphic">
        <g id="id81">
         <rect class="BoundingBox" stroke="none" fill="none" x="10688" y="4100" width="1613" height="1621"/>
         <path fill="rgb(238,238,238)" stroke="none" d="M 11480,4116 C 11047,4116 10695,4474 10695,4915 10695,5356 11047,5713 11480,5713 11914,5713 12265,5356 12265,4915 12265,4474 11914,4116 11480,4116 L 11480,4116 Z M 11480,5610 C 11357,5610 11257,5527 11257,5423 L 11704,5423 C 11704,5527 11604,5610 11480,5610 L 11480,5610 Z M 11849,5361 L 11111,5361 11111,5225 11849,5225 11849,5361 11849,5361 Z M 11847,5155 L 11113,5155 C 11111,5152 11108,5150 11106,5147 11030,5053 11013,5005 10995,4955 10995,4954 11087,4974 11152,4989 11152,4989 11186,4997 11235,5006 11188,4950 11160,4879 11160,4806 11160,4646 11280,4506 11237,4393 11279,4396 11325,4484 11328,4621 11373,4557 11391,4442 11391,4371 11391,4297 11439,4212 11487,4209 11444,4280 11498,4341 11545,4492 11563,4549 11561,4645 11574,4705 11579,4579 11600,4396 11679,4332 11644,4412 11684,4512 11711,4560 11755,4638 11782,4696 11782,4807 11782,4882 11755,4952 11709,5007 11761,4997 11797,4988 11797,4988 L 11965,4954 C 11965,4954 11941,5057 11847,5155 L 11847,5155 Z"/>
        </g>
       </g>
      </g>
      <g class="Group">
       <g class="com.sun.star.drawing.CustomShape">
        <g id="id82">
         <rect class="BoundingBox" stroke="none" fill="none" x="15117" y="4166" width="1441" height="1417"/>
         <path fill="rgb(230,82,44)" stroke="none" d="M 15837,4167 C 15969,4167 16082,4197 16197,4262 16311,4327 16394,4408 16460,4521 16526,4633 16557,4744 16557,4874 16557,5004 16526,5115 16460,5228 16394,5340 16311,5421 16197,5486 16082,5551 15969,5581 15837,5581 15705,5581 15592,5551 15477,5486 15363,5421 15280,5340 15214,5228 15148,5115 15118,5004 15118,4874 15118,4744 15148,4633 15214,4521 15280,4408 15363,4327 15477,4262 15592,4197 15705,4167 15837,4167 L 15837,4167 Z"/>
         <path fill="none" stroke="rgb(52,101,164)" d="M 15805,4168 C 15816,4167 15826,4167 15837,4167 15855,4167 15873,4168 15890,4169"/>
         <path fill="none" stroke="rgb(52,101,164)" d="M 15924,4172 C 15942,4174 15959,4176 15977,4179"/>
         <path fill="none" stroke="rgb(52,101,164)" d="M 16010,4187 C 16027,4191 16044,4196 16061,4201"/>
         <path fill="none" stroke="rgb(52,101,164)" d="M 16093,4213 C 16110,4219 16126,4226 16142,4233"/>
         <path fill="none" stroke="rgb(52,101,164)" d="M 16173,4249 C 16181,4253 16189,4257 16197,4262 16204,4266 16212,4270 16219,4275"/>
         <path fill="none" stroke="rgb(52,101,164)" d="M 16248,4293 C 16263,4303 16277,4314 16291,4324"/>
         <path fill="none" stroke="rgb(52,101,164)" d="M 16317,4346 C 16331,4358 16344,4370 16356,4383"/>
         <path fill="none" stroke="rgb(52,101,164)" d="M 16379,4408 C 16391,4421 16402,4435 16413,4449"/>
         <path fill="none" stroke="rgb(52,101,164)" d="M 16432,4477 C 16442,4491 16451,4505 16460,4521 16460,4521 16461,4521 16461,4522"/>
         <path fill="none" stroke="rgb(52,101,164)" d="M 16478,4552 C 16486,4568 16494,4583 16501,4599"/>
         <path fill="none" stroke="rgb(52,101,164)" d="M 16514,4631 C 16520,4648 16526,4664 16531,4681"/>
         <path fill="none" stroke="rgb(52,101,164)" d="M 16539,4714 C 16543,4732 16546,4749 16549,4767"/>
         <path fill="none" stroke="rgb(52,101,164)" d="M 16553,4801 C 16555,4818 16556,4836 16556,4854"/>
         <path fill="none" stroke="rgb(52,101,164)" d="M 16556,4888 C 16556,4906 16555,4924 16554,4941"/>
         <path fill="none" stroke="rgb(52,101,164)" d="M 16550,4975 C 16547,4993 16544,5010 16541,5027"/>
         <path fill="none" stroke="rgb(52,101,164)" d="M 16532,5060 C 16528,5077 16522,5094 16516,5111"/>
         <path fill="none" stroke="rgb(52,101,164)" d="M 16503,5143 C 16496,5159 16489,5175 16481,5191"/>
         <path fill="none" stroke="rgb(52,101,164)" d="M 16464,5221 C 16463,5223 16461,5225 16460,5228 16452,5241 16444,5253 16436,5266"/>
         <path fill="none" stroke="rgb(52,101,164)" d="M 16417,5294 C 16406,5308 16395,5322 16383,5335"/>
         <path fill="none" stroke="rgb(52,101,164)" d="M 16360,5361 C 16348,5373 16335,5386 16322,5398"/>
         <path fill="none" stroke="rgb(52,101,164)" d="M 16296,5420 C 16282,5430 16268,5441 16253,5451"/>
         <path fill="none" stroke="rgb(52,101,164)" d="M 16225,5470 C 16216,5475 16206,5481 16197,5486 16191,5490 16185,5493 16179,5496"/>
         <path fill="none" stroke="rgb(52,101,164)" d="M 16148,5512 C 16132,5520 16116,5527 16099,5533"/>
         <path fill="none" stroke="rgb(52,101,164)" d="M 16067,5545 C 16051,5551 16034,5556 16016,5560"/>
         <path fill="none" stroke="rgb(52,101,164)" d="M 15983,5567 C 15966,5571 15948,5574 15931,5576"/>
         <path fill="none" stroke="rgb(52,101,164)" d="M 15897,5579 C 15879,5580 15862,5581 15844,5581"/>
         <path fill="none" stroke="rgb(52,101,164)" d="M 15809,5581 C 15791,5580 15774,5579 15756,5577"/>
         <path fill="none" stroke="rgb(52,101,164)" d="M 15722,5573 C 15705,5570 15687,5567 15670,5563"/>
         <path fill="none" stroke="rgb(52,101,164)" d="M 15637,5554 C 15620,5550 15603,5544 15587,5538"/>
         <path fill="none" stroke="rgb(52,101,164)" d="M 15555,5525 C 15539,5518 15523,5511 15507,5502"/>
         <path fill="none" stroke="rgb(52,101,164)" d="M 15477,5486 C 15461,5477 15446,5468 15431,5458"/>
         <path fill="none" stroke="rgb(52,101,164)" d="M 15403,5439 C 15389,5428 15375,5417 15362,5406"/>
         <path fill="none" stroke="rgb(52,101,164)" d="M 15336,5383 C 15323,5371 15311,5358 15299,5345"/>
         <path fill="none" stroke="rgb(52,101,164)" d="M 15277,5319 C 15266,5306 15255,5291 15245,5277"/>
         <path fill="none" stroke="rgb(52,101,164)" d="M 15226,5248 C 15222,5241 15218,5234 15214,5228 15209,5219 15204,5211 15200,5202"/>
         <path fill="none" stroke="rgb(52,101,164)" d="M 15184,5172 C 15176,5155 15169,5139 15163,5123"/>
         <path fill="none" stroke="rgb(52,101,164)" d="M 15151,5091 C 15145,5074 15141,5057 15136,5040"/>
         <path fill="none" stroke="rgb(52,101,164)" d="M 15129,5006 C 15126,4989 15123,4972 15122,4954"/>
         <path fill="none" stroke="rgb(52,101,164)" d="M 15119,4920 C 15118,4905 15118,4890 15118,4874 15118,4872 15118,4869 15118,4867"/>
         <path fill="none" stroke="rgb(52,101,164)" d="M 15119,4832 C 15120,4814 15121,4797 15123,4779"/>
         <path fill="none" stroke="rgb(52,101,164)" d="M 15128,4746 C 15132,4728 15135,4711 15140,4694"/>
         <path fill="none" stroke="rgb(52,101,164)" d="M 15150,4661 C 15155,4644 15161,4628 15168,4611"/>
         <path fill="none" stroke="rgb(52,101,164)" d="M 15182,4580 C 15190,4564 15198,4549 15207,4533"/>
         <path fill="none" stroke="rgb(52,101,164)" d="M 15224,4503 C 15234,4488 15243,4473 15254,4459"/>
         <path fill="none" stroke="rgb(52,101,164)" d="M 15274,4432 C 15285,4418 15297,4405 15309,4392"/>
         <path fill="none" stroke="rgb(52,101,164)" d="M 15333,4368 C 15346,4355 15359,4344 15373,4333"/>
         <path fill="none" stroke="rgb(52,101,164)" d="M 15400,4312 C 15414,4301 15429,4291 15444,4282"/>
         <path fill="none" stroke="rgb(52,101,164)" d="M 15473,4264 C 15475,4263 15476,4263 15477,4262 15492,4254 15506,4246 15520,4239"/>
         <path fill="none" stroke="rgb(52,101,164)" d="M 15551,4225 C 15568,4217 15584,4211 15601,4205"/>
         <path fill="none" stroke="rgb(52,101,164)" d="M 15633,4195 C 15650,4190 15667,4186 15685,4182"/>
         <path fill="none" stroke="rgb(52,101,164)" d="M 15718,4176 C 15736,4173 15753,4171 15771,4170"/>
        </g>
       </g>
       <g class="Graphic">
        <g id="id83">
         <rect class="BoundingBox" stroke="none" fill="none" x="15088" y="4080" width="1613" height="1621"/>
         <path fill="rgb(238,238,238)" stroke="none" d="M 15880,4096 C 15447,4096 15095,4454 15095,4895 15095,5336 15447,5693 15880,5693 16314,5693 16665,5336 16665,4895 16665,4454 16314,4096 15880,4096 L 15880,4096 Z M 15880,5590 C 15757,5590 15657,5507 15657,5403 L 16104,5403 C 16104,5507 16004,5590 15880,5590 L 15880,5590 Z M 16249,5341 L 15511,5341 15511,5205 16249,5205 16249,5341 16249,5341 Z M 16247,5135 L 15513,5135 C 15511,5132 15508,5130 15506,5127 15430,5033 15413,4985 15395,4935 15395,4934 15487,4954 15552,4969 15552,4969 15586,4977 15635,4986 15588,4930 15560,4859 15560,4786 15560,4626 15680,4486 15637,4373 15679,4376 15725,4464 15728,4601 15773,4537 15791,4422 15791,4351 15791,4277 15839,4192 15887,4189 15844,4260 15898,4321 15945,4472 15963,4529 15961,4625 15974,4685 15979,4559 16000,4376 16079,4312 16044,4392 16084,4492 16111,4540 16155,4618 16182,4676 16182,4787 16182,4862 16155,4932 16109,4987 16161,4977 16197,4968 16197,4968 L 16365,4934 C 16365,4934 16341,5037 16247,5135 L 16247,5135 Z"/>
        </g>
       </g>
      </g>
      <g class="com.sun.star.drawing.ConnectorShape">
       <g id="id84">
        <rect class="BoundingBox" stroke="none" fill="none" x="11493" y="3492" width="2221" height="610"/>
        <path fill="none" stroke="rgb(0,0,0)" d="M 11494,4100 L 13712,3493"/>
       </g>
      </g>
      <g class="com.sun.star.drawing.ConnectorShape">
       <g id="id85">
        <rect class="BoundingBox" stroke="none" fill="none" x="13711" y="3492" width="2185" height="590"/>
        <path fill="none" stroke="rgb(0,0,0)" d="M 15894,4080 L 13712,3493"/>
       </g>
      </g>
      <g class="com.sun.star.drawing.ConnectorShape">
       <g id="id86">
        <rect class="BoundingBox" stroke="none" fill="none" x="7309" y="5719" width="4187" height="4562"/>
        <path fill="none" stroke="rgb(0,0,0)" d="M 7310,10279 L 11494,5720"/>
       </g>
      </g>
      <g class="com.sun.star.drawing.ConnectorShape">
       <g id="id87">
        <rect class="BoundingBox" stroke="none" fill="none" x="11493" y="5719" width="2231" height="4562"/>
        <path fill="none" stroke="rgb(0,0,0)" d="M 13722,10279 L 11494,5720"/>
       </g>
      </g>
      <g class="com.sun.star.drawing.ConnectorShape">
       <g id="id88">
        <rect class="BoundingBox" stroke="none" fill="none" x="15893" y="5699" width="1026" height="4582"/>
        <path fill="none" stroke="rgb(0,0,0)" d="M 16917,10279 L 15894,5700"/>
       </g>
      </g>
      <g class="com.sun.star.drawing.ConnectorShape">
       <g id="id89">
        <rect class="BoundingBox" stroke="none" fill="none" x="15893" y="5699" width="4199" height="4558"/>
        <path fill="none" stroke="rgb(0,0,0)" d="M 20090,10255 L 15894,5700"/>
       </g>
      </g>
     </g>
    </g>
   </g>
  </g>
 </g>
</svg>